<svg xmlns="http://www.w3.org/2000/svg" xmlns:xlink="http://www.w3.org/1999/xlink" width="40" zoomAndPan="magnify" viewBox="0 0 30 30.000001" height="40" preserveAspectRatio="xMidYMid meet" version="1.2"><defs><clipPath id="f24c044ccc"><path d="M 0.484375 0 L 29.515625 0 L 29.515625 29.03125 L 0.484375 29.03125 Z M 0.484375 0 "/></clipPath></defs><g id="af549d94ee"><g clip-rule="nonzero" clip-path="url(#f24c044ccc)"><path style=" stroke:none;fill-rule:nonzero;fill:#42444a;fill-opacity:1;" d="M 15.054688 29.085938 C 14.160156 28.996094 13.382812 28.644531 12.730469 28.03125 C 12.417969 27.742188 12.066406 27.511719 11.675781 27.34375 C 11.222656 27.265625 10.773438 27.265625 10.324219 27.34375 C 9.46875 27.550781 8.636719 27.476562 7.832031 27.121094 C 7.109375 26.625 6.613281 25.960938 6.34375 25.125 C 6.199219 24.699219 5.988281 24.308594 5.710938 23.953125 C 5.347656 23.65625 4.941406 23.429688 4.496094 23.277344 C 3.644531 23.03125 2.957031 22.550781 2.4375 21.832031 C 2.082031 21.027344 2.007812 20.195312 2.214844 19.339844 C 2.292969 18.890625 2.292969 18.441406 2.214844 17.988281 C 2.046875 17.597656 1.816406 17.246094 1.527344 16.933594 C 0.914062 16.28125 0.5625 15.503906 0.472656 14.609375 C 0.5625 13.71875 0.914062 12.941406 1.527344 12.289062 C 1.816406 11.976562 2.046875 11.621094 2.214844 11.234375 C 2.292969 10.78125 2.292969 10.332031 2.214844 9.882812 C 2.007812 9.027344 2.082031 8.195312 2.4375 7.390625 C 2.945312 6.640625 3.632812 6.128906 4.496094 5.859375 C 4.921875 5.714844 5.3125 5.503906 5.667969 5.226562 C 5.964844 4.863281 6.191406 4.457031 6.34375 4.011719 C 6.597656 3.175781 7.082031 2.503906 7.789062 1.996094 C 8.59375 1.640625 9.425781 1.566406 10.28125 1.773438 C 10.730469 1.851562 11.183594 1.851562 11.632812 1.773438 C 12.023438 1.601562 12.375 1.375 12.6875 1.085938 C 13.34375 0.472656 14.117188 0.121094 15.011719 0.03125 C 15.90625 0.121094 16.679688 0.472656 17.332031 1.085938 C 17.648438 1.375 18 1.601562 18.390625 1.773438 C 18.839844 1.851562 19.289062 1.851562 19.738281 1.773438 C 20.59375 1.566406 21.425781 1.640625 22.230469 1.996094 C 22.960938 2.53125 23.441406 3.234375 23.679688 4.105469 C 23.820312 4.535156 24.03125 4.925781 24.3125 5.277344 C 24.664062 5.558594 25.054688 5.769531 25.484375 5.910156 C 26.335938 6.160156 27.019531 6.640625 27.542969 7.359375 C 27.898438 8.164062 27.96875 8.996094 27.761719 9.851562 C 27.683594 10.300781 27.683594 10.75 27.761719 11.203125 C 27.933594 11.589844 28.164062 11.941406 28.449219 12.257812 C 29.066406 12.910156 29.417969 13.683594 29.503906 14.578125 C 29.417969 15.472656 29.066406 16.246094 28.449219 16.902344 C 28.164062 17.214844 27.933594 17.566406 27.761719 17.957031 C 27.683594 18.410156 27.683594 18.859375 27.761719 19.308594 C 27.96875 20.164062 27.898438 20.996094 27.542969 21.800781 C 27.058594 22.503906 26.417969 23 25.609375 23.277344 C 25.183594 23.421875 24.792969 23.632812 24.4375 23.910156 C 24.160156 24.265625 23.949219 24.65625 23.804688 25.082031 C 23.558594 25.933594 23.074219 26.621094 22.359375 27.140625 C 21.554688 27.496094 20.722656 27.570312 19.867188 27.363281 C 19.417969 27.285156 18.964844 27.285156 18.515625 27.363281 C 18.125 27.535156 17.773438 27.761719 17.460938 28.050781 C 16.777344 28.675781 15.976562 29.023438 15.054688 29.085938 Z M 11.210938 25.695312 C 11.492188 25.695312 11.769531 25.730469 12.042969 25.800781 C 12.65625 26.011719 13.207031 26.332031 13.691406 26.761719 C 14.078125 27.132812 14.53125 27.378906 15.054688 27.5 C 15.574219 27.378906 16.027344 27.132812 16.414062 26.761719 C 16.898438 26.332031 17.449219 26.011719 18.0625 25.800781 C 18.714844 25.675781 19.371094 25.675781 20.023438 25.800781 C 20.519531 25.9375 21.019531 25.9375 21.515625 25.800781 C 21.894531 25.441406 22.160156 25.007812 22.304688 24.503906 C 22.515625 23.875 22.835938 23.316406 23.277344 22.824219 C 23.769531 22.382812 24.328125 22.058594 24.957031 21.851562 C 25.457031 21.707031 25.890625 21.445312 26.253906 21.070312 C 26.386719 20.574219 26.386719 20.074219 26.253906 19.574219 C 26.125 18.917969 26.125 18.265625 26.253906 17.609375 C 26.464844 16.996094 26.785156 16.449219 27.214844 15.960938 C 27.582031 15.574219 27.832031 15.121094 27.953125 14.601562 C 27.832031 14.078125 27.582031 13.625 27.214844 13.238281 C 26.785156 12.753906 26.464844 12.203125 26.253906 11.589844 C 26.125 10.9375 26.125 10.28125 26.253906 9.628906 C 26.386719 9.132812 26.386719 8.636719 26.253906 8.140625 C 25.894531 7.757812 25.460938 7.492188 24.957031 7.347656 C 24.328125 7.140625 23.769531 6.816406 23.277344 6.375 C 22.835938 5.886719 22.511719 5.324219 22.304688 4.699219 C 22.160156 4.195312 21.898438 3.765625 21.523438 3.398438 C 21.023438 3.265625 20.523438 3.265625 20.023438 3.398438 C 19.371094 3.527344 18.714844 3.527344 18.0625 3.398438 C 17.449219 3.1875 16.898438 2.867188 16.414062 2.4375 C 16.035156 2.046875 15.582031 1.777344 15.054688 1.636719 C 14.53125 1.757812 14.078125 2.003906 13.691406 2.375 C 13.207031 2.804688 12.65625 3.125 12.042969 3.335938 C 11.390625 3.464844 10.734375 3.464844 10.082031 3.335938 C 9.585938 3.203125 9.089844 3.203125 8.589844 3.335938 C 8.210938 3.695312 7.945312 4.128906 7.800781 4.632812 C 7.59375 5.261719 7.269531 5.820312 6.828125 6.3125 C 6.335938 6.753906 5.777344 7.078125 5.148438 7.285156 C 4.648438 7.429688 4.214844 7.691406 3.851562 8.066406 C 3.71875 8.566406 3.71875 9.066406 3.851562 9.566406 C 3.980469 10.21875 3.980469 10.875 3.851562 11.527344 C 3.640625 12.140625 3.320312 12.691406 2.890625 13.175781 C 2.503906 13.566406 2.246094 14.03125 2.121094 14.570312 C 2.242188 15.089844 2.488281 15.542969 2.859375 15.929688 C 3.289062 16.417969 3.609375 16.964844 3.820312 17.578125 C 3.949219 18.230469 3.949219 18.886719 3.820312 19.542969 C 3.6875 20.039062 3.6875 20.535156 3.820312 21.03125 C 4.179688 21.414062 4.613281 21.675781 5.117188 21.820312 C 5.746094 22.027344 6.304688 22.351562 6.796875 22.792969 C 7.238281 23.285156 7.5625 23.84375 7.769531 24.472656 C 7.914062 24.972656 8.175781 25.40625 8.550781 25.769531 C 9.050781 25.902344 9.550781 25.902344 10.046875 25.769531 C 10.433594 25.71875 10.820312 25.691406 11.210938 25.695312 Z M 14.683594 16.839844 L 18.992188 12.617188 C 19.148438 12.460938 19.226562 12.273438 19.226562 12.054688 C 19.226562 11.835938 19.148438 11.648438 18.996094 11.492188 C 18.839844 11.335938 18.652344 11.257812 18.433594 11.257812 C 18.214844 11.253906 18.027344 11.332031 17.871094 11.484375 L 14.132812 15.171875 L 12.234375 13.292969 C 12.078125 13.136719 11.894531 13.058594 11.675781 13.058594 C 11.457031 13.058594 11.269531 13.136719 11.113281 13.292969 C 10.960938 13.445312 10.882812 13.632812 10.882812 13.851562 C 10.882812 14.070312 10.960938 14.257812 11.113281 14.410156 L 13.574219 16.828125 C 13.730469 16.984375 13.914062 17.0625 14.132812 17.058594 C 14.351562 17.066406 14.53125 16.992188 14.683594 16.839844 Z M 15.054688 24.335938 C 14.410156 24.335938 13.777344 24.273438 13.148438 24.148438 C 12.519531 24.023438 11.90625 23.835938 11.316406 23.589844 C 10.722656 23.34375 10.160156 23.042969 9.628906 22.6875 C 9.09375 22.332031 8.601562 21.925781 8.148438 21.472656 C 7.695312 21.019531 7.289062 20.527344 6.933594 19.996094 C 6.578125 19.460938 6.277344 18.898438 6.03125 18.304688 C 5.785156 17.714844 5.601562 17.101562 5.476562 16.472656 C 5.351562 15.84375 5.289062 15.210938 5.289062 14.570312 C 5.289062 13.925781 5.351562 13.292969 5.476562 12.664062 C 5.601562 12.035156 5.785156 11.425781 6.03125 10.832031 C 6.277344 10.238281 6.578125 9.675781 6.933594 9.144531 C 7.289062 8.609375 7.695312 8.117188 8.148438 7.664062 C 8.601562 7.210938 9.09375 6.804688 9.628906 6.449219 C 10.160156 6.09375 10.722656 5.792969 11.316406 5.546875 C 11.90625 5.300781 12.519531 5.117188 13.148438 4.992188 C 13.777344 4.867188 14.410156 4.804688 15.054688 4.804688 C 15.695312 4.804688 16.328125 4.867188 16.957031 4.992188 C 17.585938 5.117188 18.199219 5.300781 18.789062 5.546875 C 19.382812 5.792969 19.945312 6.09375 20.476562 6.449219 C 21.011719 6.804688 21.503906 7.210938 21.957031 7.664062 C 22.410156 8.117188 22.816406 8.609375 23.171875 9.144531 C 23.527344 9.675781 23.828125 10.238281 24.074219 10.832031 C 24.320312 11.425781 24.503906 12.035156 24.628906 12.664062 C 24.753906 13.292969 24.816406 13.925781 24.816406 14.570312 C 24.816406 15.210938 24.753906 15.84375 24.628906 16.472656 C 24.503906 17.101562 24.316406 17.710938 24.070312 18.304688 C 23.828125 18.894531 23.527344 19.457031 23.167969 19.992188 C 22.8125 20.523438 22.40625 21.019531 21.953125 21.472656 C 21.5 21.925781 21.007812 22.328125 20.476562 22.683594 C 19.941406 23.042969 19.378906 23.34375 18.789062 23.589844 C 18.195312 23.832031 17.585938 24.019531 16.957031 24.144531 C 16.328125 24.269531 15.695312 24.332031 15.054688 24.335938 Z M 15.054688 6.386719 C 14.515625 6.386719 13.984375 6.441406 13.457031 6.542969 C 12.929688 6.648438 12.417969 6.804688 11.921875 7.011719 C 11.425781 7.214844 10.953125 7.46875 10.507812 7.765625 C 10.058594 8.0625 9.648438 8.402344 9.265625 8.785156 C 8.886719 9.164062 8.546875 9.578125 8.25 10.023438 C 7.953125 10.46875 7.699219 10.941406 7.492188 11.4375 C 7.289062 11.933594 7.132812 12.445312 7.027344 12.972656 C 6.921875 13.5 6.871094 14.03125 6.871094 14.570312 C 6.871094 15.105469 6.921875 15.636719 7.027344 16.164062 C 7.132812 16.691406 7.289062 17.203125 7.492188 17.699219 C 7.699219 18.195312 7.953125 18.667969 8.25 19.113281 C 8.546875 19.5625 8.886719 19.972656 9.265625 20.355469 C 9.648438 20.734375 10.058594 21.074219 10.507812 21.371094 C 10.953125 21.671875 11.425781 21.921875 11.921875 22.128906 C 12.417969 22.332031 12.929688 22.488281 13.457031 22.59375 C 13.984375 22.699219 14.515625 22.75 15.054688 22.75 C 15.589844 22.75 16.121094 22.699219 16.648438 22.59375 C 17.175781 22.488281 17.6875 22.332031 18.183594 22.128906 C 18.679688 21.921875 19.152344 21.671875 19.597656 21.371094 C 20.046875 21.074219 20.457031 20.734375 20.839844 20.355469 C 21.21875 19.972656 21.558594 19.5625 21.855469 19.113281 C 22.152344 18.667969 22.40625 18.195312 22.613281 17.699219 C 22.816406 17.203125 22.972656 16.691406 23.078125 16.164062 C 23.183594 15.636719 23.234375 15.105469 23.234375 14.570312 C 23.234375 14.03125 23.179688 13.5 23.074219 12.972656 C 22.96875 12.445312 22.816406 11.933594 22.609375 11.441406 C 22.402344 10.945312 22.152344 10.472656 21.851562 10.027344 C 21.554688 9.578125 21.214844 9.167969 20.835938 8.785156 C 20.457031 8.40625 20.042969 8.066406 19.597656 7.769531 C 19.148438 7.472656 18.679688 7.21875 18.183594 7.011719 C 17.6875 6.808594 17.175781 6.652344 16.648438 6.546875 C 16.121094 6.441406 15.589844 6.386719 15.054688 6.386719 Z M 15.054688 6.386719 "/></g></g></svg>