<svg xmlns="http://www.w3.org/2000/svg" xmlns:xlink="http://www.w3.org/1999/xlink" width="40" zoomAndPan="magnify" viewBox="0 0 30 30.000001" height="40" preserveAspectRatio="xMidYMid meet" version="1.2"><defs><clipPath id="5ac62ded7f"><path d="M 24 3 L 29.515625 3 L 29.515625 8 L 24 8 Z M 24 3 "/></clipPath><clipPath id="9575c83336"><path d="M 12 4 L 28 4 L 28 29.03125 L 12 29.03125 Z M 12 4 "/></clipPath><clipPath id="0f37584784"><path d="M 0.484375 17 L 8 17 L 8 19 L 0.484375 19 Z M 0.484375 17 "/></clipPath><clipPath id="32bfc5991f"><path d="M 0.484375 14 L 8 14 L 8 16 L 0.484375 16 Z M 0.484375 14 "/></clipPath></defs><g id="b23eeb0937"><path style=" stroke:none;fill-rule:nonzero;fill:#42444a;fill-opacity:1;" d="M 15.640625 27.414062 C 14.429688 27.414062 13.242188 27.203125 12.113281 26.785156 C 11.917969 26.714844 11.816406 26.492188 11.890625 26.296875 C 11.960938 26.097656 12.183594 25.996094 12.378906 26.070312 C 13.421875 26.453125 14.519531 26.652344 15.640625 26.652344 C 20.828125 26.652344 25.046875 22.433594 25.046875 17.246094 C 25.046875 12.0625 20.828125 7.84375 15.640625 7.84375 C 14.136719 7.84375 12.695312 8.1875 11.363281 8.871094 C 11.175781 8.964844 10.945312 8.890625 10.851562 8.703125 C 10.753906 8.515625 10.828125 8.285156 11.015625 8.1875 C 12.457031 7.453125 14.011719 7.078125 15.644531 7.078125 C 21.25 7.078125 25.8125 11.640625 25.8125 17.246094 C 25.8125 22.851562 21.25 27.414062 15.640625 27.414062 Z M 15.640625 27.414062 "/><path style=" stroke:none;fill-rule:nonzero;fill:#42444a;fill-opacity:1;" d="M 15.550781 10.609375 C 15.339844 10.609375 15.167969 10.4375 15.167969 10.226562 L 15.167969 7.496094 C 15.167969 7.285156 15.339844 7.113281 15.550781 7.113281 C 15.761719 7.113281 15.933594 7.285156 15.933594 7.496094 L 15.933594 10.226562 C 15.933594 10.4375 15.761719 10.609375 15.550781 10.609375 Z M 15.550781 10.609375 "/><path style=" stroke:none;fill-rule:nonzero;fill:#42444a;fill-opacity:1;" d="M 15.550781 27.414062 C 15.339844 27.414062 15.167969 27.242188 15.167969 27.03125 L 15.167969 24.300781 C 15.167969 24.089844 15.339844 23.921875 15.550781 23.921875 C 15.761719 23.921875 15.933594 24.089844 15.933594 24.300781 L 15.933594 27.03125 C 15.933594 27.242188 15.761719 27.414062 15.550781 27.414062 Z M 15.550781 27.414062 "/><path style=" stroke:none;fill-rule:nonzero;fill:#42444a;fill-opacity:1;" d="M 22.324219 24.542969 C 22.222656 24.542969 22.125 24.503906 22.050781 24.425781 L 20.148438 22.464844 C 20 22.3125 20.003906 22.070312 20.15625 21.925781 C 20.308594 21.777344 20.550781 21.78125 20.699219 21.933594 L 22.597656 23.894531 C 22.746094 24.042969 22.742188 24.285156 22.589844 24.433594 C 22.515625 24.503906 22.417969 24.542969 22.324219 24.542969 Z M 22.324219 24.542969 "/><path style=" stroke:none;fill-rule:nonzero;fill:#42444a;fill-opacity:1;" d="M 20.792969 12.882812 C 20.691406 12.882812 20.59375 12.84375 20.515625 12.765625 C 20.371094 12.613281 20.375 12.375 20.527344 12.226562 L 22.484375 10.324219 C 22.636719 10.179688 22.878906 10.183594 23.027344 10.335938 C 23.171875 10.484375 23.167969 10.726562 23.015625 10.875 L 21.058594 12.773438 C 20.984375 12.847656 20.886719 12.882812 20.792969 12.882812 Z M 20.792969 12.882812 "/><path style=" stroke:none;fill-rule:nonzero;fill:#42444a;fill-opacity:1;" d="M 25.285156 17.664062 L 22.332031 17.664062 C 22.117188 17.664062 21.949219 17.492188 21.949219 17.28125 C 21.949219 17.070312 22.117188 16.898438 22.332031 16.898438 L 25.285156 16.898438 C 25.496094 16.898438 25.667969 17.070312 25.667969 17.28125 C 25.667969 17.492188 25.496094 17.664062 25.285156 17.664062 Z M 25.285156 17.664062 "/><path style=" stroke:none;fill-rule:nonzero;fill:#42444a;fill-opacity:1;" d="M 14.972656 1.679688 L 16.3125 1.679688 L 16.3125 5.300781 L 14.972656 5.300781 Z M 14.972656 1.679688 "/><path style=" stroke:none;fill-rule:nonzero;fill:#42444a;fill-opacity:1;" d="M 16.3125 5.683594 L 14.972656 5.683594 C 14.761719 5.683594 14.589844 5.511719 14.589844 5.300781 L 14.589844 1.679688 C 14.589844 1.464844 14.761719 1.296875 14.972656 1.296875 L 16.3125 1.296875 C 16.523438 1.296875 16.695312 1.464844 16.695312 1.679688 L 16.695312 5.300781 C 16.695312 5.511719 16.523438 5.683594 16.3125 5.683594 Z M 15.355469 4.917969 L 15.929688 4.917969 L 15.929688 2.058594 L 15.355469 2.058594 Z M 15.355469 4.917969 "/><path style=" stroke:none;fill-rule:nonzero;fill:#42444a;fill-opacity:1;" d="M 18.316406 1.027344 C 18.316406 1.386719 17.800781 1.675781 17.167969 1.675781 L 14.121094 1.675781 C 13.484375 1.675781 12.96875 1.386719 12.96875 1.027344 C 12.96875 0.667969 13.484375 0.378906 14.121094 0.378906 L 17.167969 0.378906 C 17.800781 0.378906 18.316406 0.667969 18.316406 1.027344 Z M 18.316406 1.027344 "/><path style=" stroke:none;fill-rule:nonzero;fill:#42444a;fill-opacity:1;" d="M 17.167969 2.058594 L 14.121094 2.058594 C 13.246094 2.058594 12.585938 1.617188 12.585938 1.027344 C 12.585938 0.441406 13.246094 -0.00390625 14.121094 -0.00390625 L 17.167969 -0.00390625 C 18.039062 -0.00390625 18.699219 0.441406 18.699219 1.027344 C 18.699219 1.617188 18.039062 2.058594 17.167969 2.058594 Z M 14.121094 0.761719 C 13.628906 0.761719 13.363281 0.96875 13.351562 1.03125 C 13.363281 1.089844 13.625 1.296875 14.121094 1.296875 L 17.167969 1.296875 C 17.660156 1.296875 17.921875 1.089844 17.933594 1.027344 C 17.921875 0.96875 17.660156 0.761719 17.167969 0.761719 Z M 14.121094 0.761719 "/><path style=" stroke:none;fill-rule:nonzero;fill:#42444a;fill-opacity:1;" d="M 25.992188 5.488281 L 26.953125 6.421875 L 24.429688 9.019531 L 23.46875 8.085938 Z M 25.992188 5.488281 "/><path style=" stroke:none;fill-rule:nonzero;fill:#42444a;fill-opacity:1;" d="M 24.429688 9.402344 C 24.335938 9.402344 24.238281 9.367188 24.164062 9.292969 L 23.203125 8.359375 C 23.128906 8.289062 23.089844 8.191406 23.085938 8.089844 C 23.085938 7.988281 23.125 7.890625 23.195312 7.820312 L 25.71875 5.21875 C 25.867188 5.070312 26.109375 5.066406 26.261719 5.210938 L 27.222656 6.144531 C 27.292969 6.21875 27.335938 6.3125 27.335938 6.414062 C 27.339844 6.515625 27.300781 6.613281 27.230469 6.6875 L 24.703125 9.285156 C 24.628906 9.363281 24.53125 9.402344 24.429688 9.402344 Z M 24.007812 8.078125 L 24.421875 8.480469 L 26.414062 6.429688 L 26 6.027344 Z M 24.007812 8.078125 "/><path style=" stroke:none;fill-rule:nonzero;fill:#42444a;fill-opacity:1;" d="M 28.84375 7.351562 C 28.59375 7.609375 28.023438 7.457031 27.566406 7.015625 L 25.382812 4.890625 C 24.925781 4.449219 24.757812 3.882812 25.007812 3.625 C 25.257812 3.367188 25.832031 3.519531 26.285156 3.960938 L 28.472656 6.082031 C 28.925781 6.527344 29.09375 7.09375 28.84375 7.351562 Z M 28.84375 7.351562 "/><g clip-rule="nonzero" clip-path="url(#5ac62ded7f)"><path style=" stroke:none;fill-rule:nonzero;fill:#42444a;fill-opacity:1;" d="M 28.507812 7.859375 C 28.117188 7.859375 27.667969 7.644531 27.300781 7.289062 L 25.113281 5.167969 C 24.847656 4.90625 24.652344 4.597656 24.5625 4.296875 C 24.453125 3.925781 24.515625 3.582031 24.734375 3.359375 C 24.890625 3.199219 25.101562 3.117188 25.347656 3.117188 C 25.734375 3.117188 26.1875 3.328125 26.554688 3.6875 L 28.738281 5.808594 C 29.363281 6.417969 29.527344 7.195312 29.117188 7.617188 C 28.964844 7.773438 28.753906 7.859375 28.507812 7.859375 Z M 25.347656 3.882812 C 25.308594 3.882812 25.285156 3.890625 25.28125 3.890625 C 25.25 3.945312 25.292969 4.273438 25.648438 4.617188 L 27.832031 6.742188 C 28.085938 6.984375 28.351562 7.09375 28.507812 7.09375 C 28.546875 7.09375 28.566406 7.085938 28.570312 7.082031 C 28.605469 7.03125 28.558594 6.699219 28.207031 6.359375 L 26.019531 4.234375 C 25.769531 3.992188 25.5 3.882812 25.347656 3.882812 Z M 25.347656 3.882812 "/></g><g clip-rule="nonzero" clip-path="url(#9575c83336)"><path style=" stroke:none;fill-rule:nonzero;fill:#42444a;fill-opacity:1;" d="M 15.644531 29.609375 C 14.710938 29.609375 13.785156 29.503906 12.882812 29.300781 C 12.679688 29.253906 12.550781 29.050781 12.597656 28.84375 C 12.644531 28.636719 12.847656 28.507812 13.054688 28.554688 C 13.898438 28.746094 14.769531 28.84375 15.644531 28.84375 C 22.027344 28.84375 27.222656 23.648438 27.222656 17.265625 C 27.222656 10.878906 22.027344 5.683594 15.644531 5.683594 C 14.769531 5.683594 13.898438 5.78125 13.054688 5.972656 C 12.847656 6.019531 12.644531 5.890625 12.597656 5.6875 C 12.550781 5.480469 12.679688 5.273438 12.882812 5.226562 C 13.785156 5.023438 14.710938 4.917969 15.644531 4.917969 C 22.449219 4.917969 27.988281 10.457031 27.988281 17.265625 C 27.988281 24.070312 22.449219 29.609375 15.644531 29.609375 Z M 15.644531 29.609375 "/></g><path style=" stroke:none;fill-rule:nonzero;fill:#42444a;fill-opacity:1;" d="M 15.644531 17.648438 C 15.574219 17.648438 15.503906 17.628906 15.441406 17.589844 C 15.328125 17.519531 15.261719 17.398438 15.261719 17.265625 L 15.261719 11.867188 C 15.261719 11.65625 15.429688 11.488281 15.644531 11.488281 C 15.855469 11.488281 16.023438 11.65625 16.023438 11.867188 L 16.023438 16.644531 L 18.851562 15.234375 C 19.039062 15.140625 19.269531 15.214844 19.363281 15.40625 C 19.457031 15.59375 19.378906 15.824219 19.191406 15.917969 L 15.8125 17.605469 C 15.757812 17.632812 15.699219 17.648438 15.644531 17.648438 Z M 15.644531 17.648438 "/><path style=" stroke:none;fill-rule:nonzero;fill:#42444a;fill-opacity:1;" d="M 9.675781 9.847656 L 6.257812 9.847656 C 6.046875 9.847656 5.878906 9.675781 5.878906 9.464844 C 5.878906 9.253906 6.046875 9.082031 6.257812 9.082031 L 9.675781 9.082031 C 9.886719 9.082031 10.058594 9.253906 10.058594 9.464844 C 10.058594 9.675781 9.886719 9.847656 9.675781 9.847656 Z M 9.675781 9.847656 "/><path style=" stroke:none;fill-rule:nonzero;fill:#42444a;fill-opacity:1;" d="M 10.542969 27.449219 L 7.128906 27.449219 C 6.917969 27.449219 6.746094 27.28125 6.746094 27.070312 C 6.746094 26.859375 6.917969 26.6875 7.128906 26.6875 L 10.542969 26.6875 C 10.753906 26.6875 10.925781 26.859375 10.925781 27.070312 C 10.925781 27.28125 10.753906 27.449219 10.542969 27.449219 Z M 10.542969 27.449219 "/><g clip-rule="nonzero" clip-path="url(#0f37584784)"><path style=" stroke:none;fill-rule:nonzero;fill:#42444a;fill-opacity:1;" d="M 6.832031 18.730469 L 1.058594 18.730469 C 0.847656 18.730469 0.675781 18.558594 0.675781 18.347656 C 0.675781 18.136719 0.847656 17.964844 1.058594 17.964844 L 6.832031 17.964844 C 7.042969 17.964844 7.214844 18.136719 7.214844 18.347656 C 7.214844 18.558594 7.042969 18.730469 6.832031 18.730469 Z M 6.832031 18.730469 "/></g><path style=" stroke:none;fill-rule:nonzero;fill:#42444a;fill-opacity:1;" d="M 7.257812 21.839844 L 1.484375 21.839844 C 1.273438 21.839844 1.101562 21.667969 1.101562 21.457031 C 1.101562 21.246094 1.273438 21.074219 1.484375 21.074219 L 7.257812 21.074219 C 7.46875 21.074219 7.640625 21.246094 7.640625 21.457031 C 7.640625 21.667969 7.46875 21.839844 7.257812 21.839844 Z M 7.257812 21.839844 "/><path style=" stroke:none;fill-rule:nonzero;fill:#42444a;fill-opacity:1;" d="M 8.96875 24.917969 L 3.191406 24.917969 C 2.980469 24.917969 2.808594 24.746094 2.808594 24.535156 C 2.808594 24.324219 2.980469 24.152344 3.191406 24.152344 L 8.96875 24.152344 C 9.179688 24.152344 9.347656 24.324219 9.347656 24.535156 C 9.347656 24.746094 9.179688 24.917969 8.96875 24.917969 Z M 8.96875 24.917969 "/><path style=" stroke:none;fill-rule:nonzero;fill:#42444a;fill-opacity:1;" d="M 7.96875 12.515625 L 2.53125 12.515625 C 2.320312 12.515625 2.148438 12.34375 2.148438 12.132812 C 2.148438 11.921875 2.320312 11.75 2.53125 11.75 L 7.96875 11.75 C 8.179688 11.75 8.351562 11.921875 8.351562 12.132812 C 8.351562 12.34375 8.179688 12.515625 7.96875 12.515625 Z M 7.96875 12.515625 "/><g clip-rule="nonzero" clip-path="url(#32bfc5991f)"><path style=" stroke:none;fill-rule:nonzero;fill:#42444a;fill-opacity:1;" d="M 7.019531 15.535156 L 0.871094 15.535156 C 0.660156 15.535156 0.488281 15.363281 0.488281 15.152344 C 0.488281 14.941406 0.660156 14.769531 0.871094 14.769531 L 7.019531 14.769531 C 7.230469 14.769531 7.398438 14.941406 7.398438 15.152344 C 7.398438 15.363281 7.230469 15.535156 7.019531 15.535156 Z M 7.019531 15.535156 "/></g></g></svg>