<svg xmlns="http://www.w3.org/2000/svg" xmlns:xlink="http://www.w3.org/1999/xlink" width="80" zoomAndPan="magnify" viewBox="0 0 60 60" height="80" preserveAspectRatio="xMidYMid meet" version="1.2"><g id="0c2f5b6443"><rect x="0" width="60" y="0" height="60" style="fill:#ffffff;fill-opacity:1;stroke:none;"/><rect x="0" width="60" y="0" height="60" style="fill:#ffffff;fill-opacity:1;stroke:none;"/><path style=" stroke:none;fill-rule:nonzero;fill:#42444a;fill-opacity:1;" d="M 30 0 C 13.433594 0 0 13.433594 0 30 C 0 46.566406 13.433594 60 30 60 C 46.566406 60 60 46.566406 60 30 C 60 13.433594 46.566406 0 30 0 Z M 43.011719 34.460938 C 43.011719 34.753906 42.824219 35.007812 42.554688 35.101562 L 40.050781 35.945312 L 40.050781 27.289062 L 43.011719 26.304688 Z M 48.300781 23.128906 C 48.300781 23.128906 40.773438 25.640625 40.050781 25.882812 C 40.058594 25.050781 39.570312 24.300781 38.8125 23.992188 L 31.40625 20.898438 C 31.058594 20.757812 30.675781 20.914062 30.523438 21.253906 C 30.382812 21.601562 30.542969 21.992188 30.882812 22.132812 L 38.296875 25.238281 C 38.757812 25.40625 38.71875 25.929688 38.710938 26.324219 C 38.699219 27.027344 38.71875 35.410156 38.710938 36.382812 L 38.710938 40.332031 C 39.488281 40.613281 40.050781 41.34375 40.050781 42.214844 C 40.023438 44.605469 36.582031 44.972656 36.066406 42.609375 C 35.867188 41.578125 36.476562 40.648438 37.367188 40.332031 L 37.367188 36.835938 L 30.214844 39.214844 C 30.066406 39.261719 29.925781 39.261719 29.785156 39.214844 L 17.445312 35.101562 C 17.175781 35.007812 16.988281 34.753906 16.988281 34.460938 L 16.988281 26.304688 L 29.363281 30.429688 C 29.550781 30.476562 29.710938 30.523438 30 30.535156 C 30.289062 30.523438 30.449219 30.476562 30.636719 30.429688 C 31.59375 30.113281 36.523438 28.472656 37.367188 28.191406 L 37.367188 26.773438 L 30.214844 29.15625 C 30.066406 29.203125 29.925781 29.203125 29.785156 29.15625 C 29.785156 29.15625 12.75 23.484375 11.699219 23.128906 C 11.089844 22.941406 11.109375 22.039062 11.699219 21.851562 L 29.785156 15.824219 C 29.925781 15.777344 30.074219 15.777344 30.214844 15.824219 C 34.554688 17.269531 43.894531 20.382812 48.300781 21.851562 C 48.898438 22.039062 48.898438 22.949219 48.300781 23.128906 Z M 48.300781 23.128906 "/></g></svg>