<svg xmlns="http://www.w3.org/2000/svg" xmlns:xlink="http://www.w3.org/1999/xlink" width="40" zoomAndPan="magnify" viewBox="0 0 30 30.000001" height="40" preserveAspectRatio="xMidYMid meet" version="1.2"><defs><clipPath id="852b483ea5"><path d="M 0.484375 0 L 29.515625 0 L 29.515625 29.03125 L 0.484375 29.03125 Z M 0.484375 0 "/></clipPath><clipPath id="ad3c5232fe"><path d="M 15 0 C 6.984375 0 0.484375 6.5 0.484375 14.515625 C 0.484375 22.53125 6.984375 29.03125 15 29.03125 C 23.015625 29.03125 29.515625 22.53125 29.515625 14.515625 C 29.515625 6.5 23.015625 0 15 0 Z M 15 0 "/></clipPath><clipPath id="02d620c39d"><path d="M 0.484375 0 L 29.515625 0 L 29.515625 29.03125 L 0.484375 29.03125 Z M 0.484375 0 "/></clipPath><clipPath id="eae8f40116"><path d="M 15 0 C 6.984375 0 0.484375 6.5 0.484375 14.515625 C 0.484375 22.53125 6.984375 29.03125 15 29.03125 C 23.015625 29.03125 29.515625 22.53125 29.515625 14.515625 C 29.515625 6.5 23.015625 0 15 0 Z M 15 0 "/></clipPath><linearGradient x1="128" gradientTransform="matrix(0.113407,0,0,0.113407,0.48387,0.00000193548)" y1="256" x2="128" gradientUnits="userSpaceOnUse" y2="0" id="71879f74ac"><stop style="stop-color:#e35df7;stop-opacity:1;" offset="0"/><stop style="stop-color:#e35df7;stop-opacity:1;" offset="0.0078125"/><stop style="stop-color:#e25df7;stop-opacity:1;" offset="0.015625"/><stop style="stop-color:#e25df7;stop-opacity:1;" offset="0.0234375"/><stop style="stop-color:#e15cf7;stop-opacity:1;" offset="0.03125"/><stop style="stop-color:#e05cf7;stop-opacity:1;" offset="0.0390625"/><stop style="stop-color:#e05cf7;stop-opacity:1;" offset="0.046875"/><stop style="stop-color:#df5cf7;stop-opacity:1;" offset="0.0546875"/><stop style="stop-color:#df5cf7;stop-opacity:1;" offset="0.0625"/><stop style="stop-color:#de5cf8;stop-opacity:1;" offset="0.0703125"/><stop style="stop-color:#dd5bf8;stop-opacity:1;" offset="0.078125"/><stop style="stop-color:#dd5bf8;stop-opacity:1;" offset="0.0859375"/><stop style="stop-color:#dc5bf8;stop-opacity:1;" offset="0.09375"/><stop style="stop-color:#dc5bf8;stop-opacity:1;" offset="0.101562"/><stop style="stop-color:#db5bf8;stop-opacity:1;" offset="0.109375"/><stop style="stop-color:#da5bf8;stop-opacity:1;" offset="0.117188"/><stop style="stop-color:#da5af8;stop-opacity:1;" offset="0.125"/><stop style="stop-color:#d95af8;stop-opacity:1;" offset="0.132812"/><stop style="stop-color:#d95af8;stop-opacity:1;" offset="0.140625"/><stop style="stop-color:#d85af8;stop-opacity:1;" offset="0.148438"/><stop style="stop-color:#d75af8;stop-opacity:1;" offset="0.15625"/><stop style="stop-color:#d759f8;stop-opacity:1;" offset="0.164062"/><stop style="stop-color:#d659f8;stop-opacity:1;" offset="0.171875"/><stop style="stop-color:#d659f8;stop-opacity:1;" offset="0.179688"/><stop style="stop-color:#d559f8;stop-opacity:1;" offset="0.1875"/><stop style="stop-color:#d459f9;stop-opacity:1;" offset="0.195312"/><stop style="stop-color:#d459f9;stop-opacity:1;" offset="0.203125"/><stop style="stop-color:#d358f9;stop-opacity:1;" offset="0.210938"/><stop style="stop-color:#d358f9;stop-opacity:1;" offset="0.21875"/><stop style="stop-color:#d258f9;stop-opacity:1;" offset="0.226562"/><stop style="stop-color:#d158f9;stop-opacity:1;" offset="0.234375"/><stop style="stop-color:#d158f9;stop-opacity:1;" offset="0.242188"/><stop style="stop-color:#d058f9;stop-opacity:1;" offset="0.25"/><stop style="stop-color:#d057f9;stop-opacity:1;" offset="0.257812"/><stop style="stop-color:#cf57f9;stop-opacity:1;" offset="0.265625"/><stop style="stop-color:#cf57f9;stop-opacity:1;" offset="0.273438"/><stop style="stop-color:#ce57f9;stop-opacity:1;" offset="0.28125"/><stop style="stop-color:#cd57f9;stop-opacity:1;" offset="0.289062"/><stop style="stop-color:#cd57f9;stop-opacity:1;" offset="0.296875"/><stop style="stop-color:#cc56f9;stop-opacity:1;" offset="0.304688"/><stop style="stop-color:#cc56f9;stop-opacity:1;" offset="0.3125"/><stop style="stop-color:#cb56fa;stop-opacity:1;" offset="0.320312"/><stop style="stop-color:#ca56fa;stop-opacity:1;" offset="0.328125"/><stop style="stop-color:#ca56fa;stop-opacity:1;" offset="0.335938"/><stop style="stop-color:#c956fa;stop-opacity:1;" offset="0.34375"/><stop style="stop-color:#c955fa;stop-opacity:1;" offset="0.351562"/><stop style="stop-color:#c855fa;stop-opacity:1;" offset="0.359375"/><stop style="stop-color:#c755fa;stop-opacity:1;" offset="0.367188"/><stop style="stop-color:#c755fa;stop-opacity:1;" offset="0.375"/><stop style="stop-color:#c655fa;stop-opacity:1;" offset="0.382812"/><stop style="stop-color:#c654fa;stop-opacity:1;" offset="0.390625"/><stop style="stop-color:#c554fa;stop-opacity:1;" offset="0.398438"/><stop style="stop-color:#c454fa;stop-opacity:1;" offset="0.40625"/><stop style="stop-color:#c454fa;stop-opacity:1;" offset="0.414062"/><stop style="stop-color:#c354fa;stop-opacity:1;" offset="0.421875"/><stop style="stop-color:#c354fa;stop-opacity:1;" offset="0.429688"/><stop style="stop-color:#c253fa;stop-opacity:1;" offset="0.4375"/><stop style="stop-color:#c153fb;stop-opacity:1;" offset="0.445312"/><stop style="stop-color:#c153fb;stop-opacity:1;" offset="0.453125"/><stop style="stop-color:#c053fb;stop-opacity:1;" offset="0.460938"/><stop style="stop-color:#c053fb;stop-opacity:1;" offset="0.46875"/><stop style="stop-color:#bf53fb;stop-opacity:1;" offset="0.476562"/><stop style="stop-color:#be52fb;stop-opacity:1;" offset="0.484375"/><stop style="stop-color:#be52fb;stop-opacity:1;" offset="0.492188"/><stop style="stop-color:#bd52fb;stop-opacity:1;" offset="0.5"/><stop style="stop-color:#bd52fb;stop-opacity:1;" offset="0.507812"/><stop style="stop-color:#bc52fb;stop-opacity:1;" offset="0.515625"/><stop style="stop-color:#bc52fb;stop-opacity:1;" offset="0.523438"/><stop style="stop-color:#bb51fb;stop-opacity:1;" offset="0.53125"/><stop style="stop-color:#ba51fb;stop-opacity:1;" offset="0.539062"/><stop style="stop-color:#ba51fb;stop-opacity:1;" offset="0.546875"/><stop style="stop-color:#b951fb;stop-opacity:1;" offset="0.554688"/><stop style="stop-color:#b951fb;stop-opacity:1;" offset="0.5625"/><stop style="stop-color:#b851fc;stop-opacity:1;" offset="0.570312"/><stop style="stop-color:#b750fc;stop-opacity:1;" offset="0.578125"/><stop style="stop-color:#b750fc;stop-opacity:1;" offset="0.585938"/><stop style="stop-color:#b650fc;stop-opacity:1;" offset="0.59375"/><stop style="stop-color:#b650fc;stop-opacity:1;" offset="0.601562"/><stop style="stop-color:#b550fc;stop-opacity:1;" offset="0.609375"/><stop style="stop-color:#b450fc;stop-opacity:1;" offset="0.617188"/><stop style="stop-color:#b44ffc;stop-opacity:1;" offset="0.625"/><stop style="stop-color:#b34ffc;stop-opacity:1;" offset="0.632812"/><stop style="stop-color:#b34ffc;stop-opacity:1;" offset="0.640625"/><stop style="stop-color:#b24ffc;stop-opacity:1;" offset="0.648438"/><stop style="stop-color:#b14ffc;stop-opacity:1;" offset="0.65625"/><stop style="stop-color:#b14efc;stop-opacity:1;" offset="0.664062"/><stop style="stop-color:#b04efc;stop-opacity:1;" offset="0.671875"/><stop style="stop-color:#b04efc;stop-opacity:1;" offset="0.679688"/><stop style="stop-color:#af4efc;stop-opacity:1;" offset="0.6875"/><stop style="stop-color:#ae4efd;stop-opacity:1;" offset="0.695312"/><stop style="stop-color:#ae4efd;stop-opacity:1;" offset="0.703125"/><stop style="stop-color:#ad4dfd;stop-opacity:1;" offset="0.710938"/><stop style="stop-color:#ad4dfd;stop-opacity:1;" offset="0.71875"/><stop style="stop-color:#ac4dfd;stop-opacity:1;" offset="0.726562"/><stop style="stop-color:#ab4dfd;stop-opacity:1;" offset="0.734375"/><stop style="stop-color:#ab4dfd;stop-opacity:1;" offset="0.742188"/><stop style="stop-color:#aa4dfd;stop-opacity:1;" offset="0.75"/><stop style="stop-color:#aa4cfd;stop-opacity:1;" offset="0.757812"/><stop style="stop-color:#a94cfd;stop-opacity:1;" offset="0.765625"/><stop style="stop-color:#a94cfd;stop-opacity:1;" offset="0.773438"/><stop style="stop-color:#a84cfd;stop-opacity:1;" offset="0.78125"/><stop style="stop-color:#a74cfd;stop-opacity:1;" offset="0.789062"/><stop style="stop-color:#a74cfd;stop-opacity:1;" offset="0.796875"/><stop style="stop-color:#a64bfd;stop-opacity:1;" offset="0.804688"/><stop style="stop-color:#a64bfd;stop-opacity:1;" offset="0.8125"/><stop style="stop-color:#a54bfe;stop-opacity:1;" offset="0.820312"/><stop style="stop-color:#a44bfe;stop-opacity:1;" offset="0.828125"/><stop style="stop-color:#a44bfe;stop-opacity:1;" offset="0.835938"/><stop style="stop-color:#a34bfe;stop-opacity:1;" offset="0.84375"/><stop style="stop-color:#a34afe;stop-opacity:1;" offset="0.851562"/><stop style="stop-color:#a24afe;stop-opacity:1;" offset="0.859375"/><stop style="stop-color:#a14afe;stop-opacity:1;" offset="0.867188"/><stop style="stop-color:#a14afe;stop-opacity:1;" offset="0.875"/><stop style="stop-color:#a04afe;stop-opacity:1;" offset="0.882812"/><stop style="stop-color:#a049fe;stop-opacity:1;" offset="0.890625"/><stop style="stop-color:#9f49fe;stop-opacity:1;" offset="0.898438"/><stop style="stop-color:#9e49fe;stop-opacity:1;" offset="0.90625"/><stop style="stop-color:#9e49fe;stop-opacity:1;" offset="0.914062"/><stop style="stop-color:#9d49fe;stop-opacity:1;" offset="0.921875"/><stop style="stop-color:#9d49fe;stop-opacity:1;" offset="0.929688"/><stop style="stop-color:#9c48fe;stop-opacity:1;" offset="0.9375"/><stop style="stop-color:#9b48ff;stop-opacity:1;" offset="0.945312"/><stop style="stop-color:#9b48ff;stop-opacity:1;" offset="0.953125"/><stop style="stop-color:#9a48ff;stop-opacity:1;" offset="0.960938"/><stop style="stop-color:#9a48ff;stop-opacity:1;" offset="0.96875"/><stop style="stop-color:#9948ff;stop-opacity:1;" offset="0.976562"/><stop style="stop-color:#9847ff;stop-opacity:1;" offset="0.984375"/><stop style="stop-color:#9847ff;stop-opacity:1;" offset="0.992188"/><stop style="stop-color:#9747ff;stop-opacity:1;" offset="1"/></linearGradient><clipPath id="2d68c4fff2"><rect x="0" width="30" y="0" height="30"/></clipPath><clipPath id="8cab7618ff"><path d="M 5.636719 5.152344 L 24.507812 5.152344 L 24.507812 24.023438 L 5.636719 24.023438 Z M 5.636719 5.152344 "/></clipPath></defs><g id="dbb93bf359"><g clip-rule="nonzero" clip-path="url(#852b483ea5)"><g clip-rule="nonzero" clip-path="url(#ad3c5232fe)"><g transform="matrix(1,0,0,1,0,0.000000000000005692)"><g clip-path="url(#2d68c4fff2)"><g clip-rule="nonzero" clip-path="url(#02d620c39d)"><g clip-rule="nonzero" clip-path="url(#eae8f40116)"><path style=" stroke:none;fill-rule:nonzero;fill:url(#71879f74ac);" d="M 0.484375 0 L 0.484375 29.03125 L 29.515625 29.03125 L 29.515625 0 Z M 0.484375 0 "/></g></g></g></g></g></g><g clip-rule="nonzero" clip-path="url(#8cab7618ff)"><path style=" stroke:none;fill-rule:nonzero;fill:#ffffff;fill-opacity:1;" d="M 11.164062 5.21875 C 10.160156 5.265625 9.476562 5.425781 8.875 5.664062 C 8.253906 5.902344 7.730469 6.226562 7.207031 6.753906 C 6.683594 7.277344 6.363281 7.804688 6.121094 8.425781 C 5.890625 9.027344 5.730469 9.710938 5.6875 10.71875 C 5.644531 11.722656 5.632812 12.042969 5.636719 14.605469 C 5.644531 17.167969 5.65625 17.492188 5.703125 18.496094 C 5.75 19.5 5.910156 20.1875 6.144531 20.785156 C 6.386719 21.40625 6.710938 21.929688 7.238281 22.453125 C 7.761719 22.976562 8.289062 23.300781 8.910156 23.539062 C 9.511719 23.773438 10.199219 23.929688 11.203125 23.972656 C 12.207031 24.019531 12.53125 24.027344 15.089844 24.023438 C 17.652344 24.019531 17.976562 24.007812 18.980469 23.960938 C 19.988281 23.910156 20.667969 23.75 21.269531 23.515625 C 21.890625 23.273438 22.414062 22.949219 22.9375 22.425781 C 23.460938 21.898438 23.785156 21.371094 24.023438 20.75 C 24.253906 20.152344 24.414062 19.464844 24.457031 18.460938 C 24.5 17.453125 24.511719 17.132812 24.507812 14.570312 C 24.5 12.007812 24.492188 11.6875 24.441406 10.679688 C 24.394531 9.675781 24.234375 8.992188 24 8.390625 C 23.757812 7.773438 23.433594 7.246094 22.910156 6.722656 C 22.382812 6.199219 21.855469 5.878906 21.234375 5.636719 C 20.636719 5.40625 19.949219 5.246094 18.945312 5.203125 C 17.941406 5.160156 17.617188 5.148438 15.054688 5.15625 C 12.492188 5.160156 12.171875 5.171875 11.164062 5.21875 M 11.273438 22.277344 C 10.355469 22.238281 9.855469 22.082031 9.523438 21.957031 C 9.082031 21.785156 8.769531 21.582031 8.4375 21.25 C 8.105469 20.921875 7.902344 20.609375 7.726562 20.167969 C 7.597656 19.835938 7.445312 19.335938 7.402344 18.417969 C 7.355469 17.421875 7.34375 17.125 7.339844 14.605469 C 7.332031 12.085938 7.34375 11.789062 7.386719 10.792969 C 7.425781 9.875 7.578125 9.375 7.707031 9.039062 C 7.875 8.597656 8.082031 8.285156 8.410156 7.953125 C 8.738281 7.621094 9.054688 7.417969 9.496094 7.246094 C 9.828125 7.117188 10.324219 6.960938 11.246094 6.917969 C 12.242188 6.871094 12.539062 6.863281 15.058594 6.855469 C 17.574219 6.851562 17.875 6.859375 18.871094 6.902344 C 19.789062 6.945312 20.289062 7.097656 20.621094 7.226562 C 21.0625 7.394531 21.378906 7.597656 21.707031 7.929688 C 22.039062 8.257812 22.246094 8.570312 22.417969 9.011719 C 22.546875 9.34375 22.699219 9.84375 22.746094 10.761719 C 22.792969 11.757812 22.800781 12.054688 22.808594 14.574219 C 22.8125 17.09375 22.800781 17.394531 22.757812 18.386719 C 22.71875 19.308594 22.566406 19.808594 22.4375 20.140625 C 22.269531 20.582031 22.0625 20.894531 21.734375 21.226562 C 21.40625 21.558594 21.089844 21.761719 20.652344 21.933594 C 20.316406 22.0625 19.820312 22.21875 18.898438 22.261719 C 17.90625 22.308594 17.605469 22.320312 15.085938 22.324219 C 12.566406 22.328125 12.269531 22.320312 11.273438 22.277344 M 18.96875 9.546875 C 18.96875 9.695312 18.996094 9.839844 19.054688 9.980469 C 19.113281 10.117188 19.195312 10.238281 19.300781 10.347656 C 19.40625 10.453125 19.527344 10.535156 19.667969 10.589844 C 19.804688 10.648438 19.949219 10.675781 20.101562 10.675781 C 20.25 10.675781 20.394531 10.648438 20.535156 10.589844 C 20.671875 10.53125 20.796875 10.449219 20.902344 10.34375 C 21.007812 10.238281 21.089844 10.113281 21.144531 9.976562 C 21.203125 9.835938 21.230469 9.691406 21.230469 9.542969 C 21.230469 9.390625 21.203125 9.246094 21.144531 9.109375 C 21.085938 8.96875 21.003906 8.847656 20.898438 8.742188 C 20.792969 8.636719 20.667969 8.554688 20.53125 8.496094 C 20.390625 8.441406 20.246094 8.410156 20.097656 8.410156 C 19.945312 8.410156 19.800781 8.441406 19.664062 8.5 C 19.523438 8.554688 19.402344 8.636719 19.296875 8.746094 C 19.191406 8.851562 19.109375 8.972656 19.050781 9.113281 C 18.996094 9.25 18.964844 9.394531 18.96875 9.546875 M 10.226562 14.597656 C 10.234375 17.273438 12.40625 19.4375 15.082031 19.433594 C 17.757812 19.429688 19.921875 17.253906 19.917969 14.578125 C 19.914062 11.902344 17.738281 9.738281 15.0625 9.742188 C 12.386719 9.75 10.222656 11.921875 10.226562 14.597656 M 11.925781 14.59375 C 11.925781 14.175781 12.003906 13.777344 12.164062 13.390625 C 12.324219 13.003906 12.550781 12.664062 12.84375 12.367188 C 13.136719 12.074219 13.476562 11.84375 13.863281 11.683594 C 14.25 11.523438 14.648438 11.445312 15.066406 11.441406 C 15.484375 11.441406 15.886719 11.523438 16.269531 11.679688 C 16.65625 11.839844 16.996094 12.066406 17.292969 12.359375 C 17.585938 12.65625 17.816406 12.992188 17.976562 13.378906 C 18.136719 13.765625 18.21875 14.164062 18.21875 14.582031 C 18.21875 15 18.140625 15.402344 17.980469 15.785156 C 17.820312 16.171875 17.59375 16.511719 17.300781 16.808594 C 17.007812 17.105469 16.667969 17.332031 16.28125 17.492188 C 15.898438 17.652344 15.496094 17.734375 15.078125 17.734375 C 14.660156 17.734375 14.261719 17.65625 13.875 17.496094 C 13.488281 17.339844 13.148438 17.113281 12.851562 16.816406 C 12.558594 16.523438 12.328125 16.183594 12.167969 15.796875 C 12.007812 15.414062 11.929688 15.011719 11.925781 14.59375 "/></g></g></svg>