<svg xmlns="http://www.w3.org/2000/svg" xmlns:xlink="http://www.w3.org/1999/xlink" width="40" zoomAndPan="magnify" viewBox="0 0 30 30.000001" height="40" preserveAspectRatio="xMidYMid meet" version="1.2"><defs><clipPath id="0670791f92"><path d="M 0.683594 7 L 24 7 L 24 26 L 0.683594 26 Z M 0.683594 7 "/></clipPath><clipPath id="f84f45cb1d"><path d="M 18.277344 13.054688 L 25.921875 13.054688 L 25.921875 29.03125 L 18.277344 29.03125 Z M 18.277344 13.054688 "/></clipPath><clipPath id="39103cbbf5"><path d="M 23.859375 10.019531 L 28.988281 10.019531 L 28.988281 29 L 23.859375 29 Z M 23.859375 10.019531 "/></clipPath></defs><g id="b090d8907a"><g clip-rule="nonzero" clip-path="url(#0670791f92)"><path style=" stroke:none;fill-rule:nonzero;fill:#42444a;fill-opacity:1;" d="M 22.832031 25.066406 C 22.226562 25.464844 21.480469 25.527344 20.777344 25.363281 C 19.867188 25.152344 19.015625 24.570312 18.507812 23.816406 C 17.695312 24.015625 16.84375 24.117188 15.976562 24.117188 C 14.90625 24.117188 13.871094 23.964844 12.898438 23.667969 C 12 24.171875 10.863281 24.445312 9.660156 24.445312 C 7.898438 24.445312 6.261719 23.816406 5.339844 22.792969 C 2.765625 22.738281 0.6875 20.714844 0.6875 18.234375 C 0.6875 16.230469 1.992188 14.511719 3.925781 13.890625 C 3.921875 13.828125 3.917969 13.757812 3.917969 13.679688 C 3.917969 11.605469 5.65625 9.960938 7.9375 9.796875 C 9.6875 6.660156 14.546875 7.46875 15.480469 8.199219 L 15.480469 9.570312 C 15.429688 9.570312 15.074219 9.410156 15.003906 9.285156 C 14.570312 8.570312 10.144531 8.113281 8.820312 10.53125 C 8.710938 10.730469 8.535156 10.886719 8.304688 10.886719 C 6.464844 10.886719 5.019531 12.113281 5.019531 13.679688 C 5.019531 13.859375 5.042969 13.960938 5.09375 14.167969 C 5.125 14.3125 5.101562 14.464844 5.019531 14.589844 C 4.941406 14.714844 4.8125 14.804688 4.667969 14.832031 C 2.972656 15.1875 1.789062 16.585938 1.789062 18.234375 C 1.789062 20.113281 3.378906 21.644531 5.355469 21.691406 C 5.925781 21.675781 6.019531 21.90625 6.144531 22.042969 C 6.832031 22.867188 8.179688 23.34375 9.660156 23.34375 C 11.972656 23.34375 13.304688 22.230469 13.574219 21.421875 C 13.671875 21.136719 13.980469 20.980469 14.269531 21.074219 C 14.558594 21.167969 14.714844 21.476562 14.621094 21.765625 C 14.5 22.140625 14.289062 22.492188 14 22.8125 C 14.632812 22.945312 15.296875 23.015625 15.976562 23.015625 C 17.902344 23.015625 19.726562 22.457031 21.113281 21.449219 C 21.359375 21.269531 21.703125 21.328125 21.882812 21.570312 C 22.0625 21.816406 22.007812 22.164062 21.761719 22.339844 C 21.121094 22.804688 20.40625 23.183594 19.636719 23.472656 C 19.996094 23.863281 20.507812 24.167969 21.027344 24.292969 C 21.496094 24.398438 21.917969 24.347656 22.222656 24.148438 C 22.472656 23.976562 22.816406 24.046875 22.984375 24.300781 C 23.152344 24.554688 23.085938 24.894531 22.832031 25.066406 "/></g><g clip-rule="nonzero" clip-path="url(#f84f45cb1d)"><path style=" stroke:none;fill-rule:nonzero;fill:#42444a;fill-opacity:1;" d="M 25.667969 22.007812 C 25.539062 22.503906 25.351562 23.019531 25.148438 23.566406 C 24.632812 24.953125 24.054688 26.527344 24.273438 28.429688 C 24.351562 29.109375 23.265625 29.289062 23.179688 28.558594 C 22.929688 26.394531 23.585938 24.613281 24.117188 23.183594 C 24.308594 22.664062 24.488281 22.175781 24.597656 21.738281 C 25.085938 19.828125 24.292969 17.710938 22.746094 16.445312 C 21.175781 16.777344 19.808594 18.023438 19.417969 19.511719 C 19.339844 19.808594 19.03125 19.980469 18.746094 19.90625 C 18.453125 19.828125 18.277344 19.527344 18.351562 19.234375 C 18.765625 17.65625 19.980469 16.335938 21.507812 15.6875 C 20.558594 15.203125 19.894531 14.410156 19.59375 13.421875 L 20.765625 13.421875 C 21.105469 14.175781 21.734375 14.519531 22.117188 14.757812 C 22.792969 15.179688 23.34375 15.363281 23.441406 15.480469 C 23.453125 15.402344 23.464844 15.324219 23.484375 15.246094 C 23.671875 14.363281 24.144531 13.609375 24.75 13.226562 C 25.003906 13.066406 25.34375 13.140625 25.507812 13.398438 C 25.671875 13.652344 25.59375 13.996094 25.339844 14.15625 C 24.988281 14.378906 24.683594 14.894531 24.558594 15.476562 C 24.445312 16.011719 24.367188 16.457031 24.78125 17.101562 C 25.71875 18.550781 26.089844 20.34375 25.667969 22.007812 "/></g><path style=" stroke:none;fill-rule:nonzero;fill:#42444a;fill-opacity:1;" d="M 18.273438 13.773438 C 18.175781 14.0625 17.859375 14.214844 17.574219 14.113281 C 16.546875 13.757812 15.921875 13.722656 14.894531 13.980469 C 14.636719 14.042969 13.824219 14.382812 13.683594 14.4375 C 12.902344 14.734375 12.066406 14.878906 11.230469 14.878906 C 10.152344 14.878906 9.070312 14.636719 8.113281 14.15625 C 7.839844 14.019531 7.730469 13.6875 7.867188 13.417969 C 8 13.144531 8.332031 13.035156 8.605469 13.171875 C 10.039062 13.886719 11.789062 13.976562 13.292969 13.40625 C 13.425781 13.359375 13.890625 13.164062 13.996094 13.121094 C 13.773438 12.929688 13.570312 12.703125 13.382812 12.433594 C 13.195312 12.171875 12.734375 11.167969 12.601562 10.980469 C 12.421875 10.734375 12.480469 10.390625 12.726562 10.214844 C 12.972656 10.035156 13.316406 10.089844 13.496094 10.339844 C 13.691406 10.609375 14.15625 11.621094 14.28125 11.800781 C 14.5 12.113281 14.960938 12.640625 15.582031 12.675781 C 15.652344 12.679688 17.117188 12.789062 17.933594 13.074219 C 18.222656 13.171875 18.375 13.488281 18.273438 13.773438 "/><path style=" stroke:none;fill-rule:nonzero;fill:#42444a;fill-opacity:1;" d="M 21.347656 12.675781 L 18.832031 12.675781 C 18.527344 12.675781 18.28125 12.429688 18.28125 12.125 C 18.28125 11.820312 18.527344 11.574219 18.832031 11.574219 L 21.347656 11.574219 C 21.652344 11.574219 21.898438 11.820312 21.898438 12.125 C 21.898438 12.429688 21.652344 12.675781 21.347656 12.675781 "/><path style=" stroke:none;fill-rule:nonzero;fill:#42444a;fill-opacity:1;" d="M 23.367188 4.90625 C 23.332031 5.867188 22.941406 6.730469 22.269531 7.34375 C 21.734375 7.828125 21.4375 8.945312 21.335938 9.738281 L 20.628906 9.738281 L 20.628906 8.40625 L 21.632812 7.066406 C 21.816406 6.824219 21.765625 6.480469 21.523438 6.296875 C 21.28125 6.113281 20.933594 6.164062 20.753906 6.40625 L 20.089844 7.289062 L 19.429688 6.40625 C 19.246094 6.164062 18.902344 6.113281 18.660156 6.296875 C 18.417969 6.480469 18.367188 6.824219 18.546875 7.066406 L 19.535156 8.382812 L 19.535156 9.738281 L 18.753906 9.738281 C 18.671875 8.988281 18.4375 7.84375 17.953125 7.359375 C 17.226562 6.632812 16.808594 5.6875 16.808594 4.757812 C 16.808594 2.761719 18.421875 1.15625 20.34375 1.304688 C 22.082031 1.445312 23.441406 3.058594 23.367188 4.90625 Z M 20.429688 0.207031 C 17.863281 0.00390625 15.707031 2.125 15.707031 4.757812 C 15.707031 5.976562 16.242188 7.207031 17.175781 8.140625 C 17.417969 8.382812 17.691406 9.628906 17.691406 10.289062 C 17.691406 10.59375 17.9375 10.839844 18.242188 10.839844 L 21.84375 10.839844 C 22.148438 10.839844 22.394531 10.59375 22.394531 10.289062 C 22.394531 9.632812 22.703125 8.433594 23.007812 8.160156 C 23.902344 7.347656 24.421875 6.207031 24.46875 4.949219 C 24.5625 2.519531 22.75 0.394531 20.429688 0.207031 "/><g clip-rule="nonzero" clip-path="url(#39103cbbf5)"><path style=" stroke:none;fill-rule:nonzero;fill:#42444a;fill-opacity:1;" d="M 28.355469 18.269531 C 28.988281 17.609375 29.308594 16.703125 29.308594 15.570312 C 29.308594 13.234375 27.769531 10.53125 24.390625 10.113281 C 24.285156 10.101562 24.140625 10.09375 23.972656 10.09375 L 23.972656 11.261719 C 24.070312 11.261719 24.164062 11.265625 24.246094 11.277344 C 26.933594 11.609375 28.136719 13.671875 28.136719 15.570312 C 28.136719 16.332031 27.957031 16.921875 27.59375 17.359375 C 27.214844 17.007812 26.761719 16.726562 26.25 16.597656 C 25.9375 16.519531 25.621094 16.714844 25.542969 17.03125 C 25.46875 17.34375 25.660156 17.660156 25.972656 17.738281 C 26.515625 17.867188 28.613281 19.179688 27.410156 21.566406 C 27.054688 22.277344 26.570312 22.933594 26.316406 23.230469 C 25.238281 24.546875 25.132812 26.808594 25.085938 27.898438 C 25.082031 27.960938 25.074219 28.277344 25.101562 28.519531 C 25.183594 29.15625 26.148438 29.144531 26.21875 28.507812 C 26.230469 28.378906 26.246094 28.144531 26.257812 27.949219 C 26.296875 26.988281 26.390625 24.988281 27.214844 23.980469 C 27.339844 23.832031 28.019531 23.019531 28.503906 22.011719 C 29.289062 20.382812 29.121094 19.4375 28.355469 18.269531 "/></g></g></svg>