<svg xmlns="http://www.w3.org/2000/svg" xmlns:xlink="http://www.w3.org/1999/xlink" width="40" zoomAndPan="magnify" viewBox="0 0 30 30.000001" height="40" preserveAspectRatio="xMidYMid meet" version="1.2"><defs><clipPath id="2c28c32c1c"><path d="M 1.390625 0 L 28.972656 0 L 28.972656 29.03125 L 1.390625 29.03125 Z M 1.390625 0 "/></clipPath></defs><g id="618d5e7f20"><g clip-rule="nonzero" clip-path="url(#2c28c32c1c)"><path style=" stroke:none;fill-rule:nonzero;fill:#49494a;fill-opacity:1;" d="M 25.601562 27.984375 L 4.910156 27.984375 C 3.890625 27.984375 2.476562 27.148438 2.476562 26.328125 L 2.476562 11.957031 C 2.691406 12.046875 2.925781 12.097656 3.164062 12.097656 L 25.601562 12.097656 C 26.527344 12.097656 27.277344 12.839844 27.277344 13.75 L 27.277344 17.175781 L 21.554688 17.175781 C 20.398438 17.175781 19.457031 18.105469 19.457031 19.246094 L 19.457031 21.105469 C 19.457031 22.25 20.398438 23.179688 21.554688 23.179688 L 27.277344 23.179688 L 27.277344 26.328125 C 27.277344 27.242188 26.527344 27.984375 25.601562 27.984375 Z M 2.480469 10.304688 C 2.515625 9.960938 2.835938 9.695312 3.214844 9.695312 L 5.707031 9.695312 L 4.488281 11.046875 L 3.164062 11.046875 C 2.96875 11.046875 2.789062 10.96875 2.65625 10.828125 C 2.523438 10.683594 2.460938 10.496094 2.480469 10.304688 Z M 16.546875 1.277344 L 24.160156 8.078125 L 21.582031 11.046875 L 7.738281 11.046875 Z M 25.214844 9.695312 C 25.679688 9.695312 26.058594 10.070312 26.058594 10.53125 L 26.058594 11.085938 C 25.910156 11.0625 25.757812 11.046875 25.601562 11.046875 L 22.980469 11.046875 L 24.15625 9.695312 Z M 27.769531 18.222656 C 27.835938 18.222656 27.886719 18.273438 27.886719 18.339844 L 27.886719 22.015625 C 27.886719 22.078125 27.835938 22.128906 27.769531 22.128906 L 21.554688 22.128906 C 20.984375 22.128906 20.519531 21.671875 20.519531 21.105469 L 20.519531 19.246094 C 20.519531 18.683594 20.984375 18.222656 21.554688 18.222656 Z M 28.339844 17.320312 L 28.339844 13.75 C 28.339844 12.816406 27.855469 11.992188 27.121094 11.503906 L 27.121094 10.53125 C 27.121094 9.492188 26.265625 8.644531 25.214844 8.644531 L 25.066406 8.644531 L 25.300781 8.371094 C 25.488281 8.15625 25.46875 7.832031 25.253906 7.640625 L 16.863281 0.144531 C 16.757812 0.046875 16.621094 0 16.480469 0.0078125 C 16.335938 0.015625 16.203125 0.078125 16.109375 0.183594 L 6.3125 11.046875 L 5.910156 11.046875 L 7.230469 9.585938 C 7.28125 9.542969 7.328125 9.496094 7.359375 9.441406 L 14.378906 1.65625 C 14.574219 1.441406 14.554688 1.109375 14.335938 0.914062 C 14.117188 0.722656 13.78125 0.742188 13.585938 0.957031 L 6.652344 8.644531 L 3.214844 8.644531 C 2.324219 8.644531 1.5625 9.285156 1.433594 10.113281 C 1.421875 10.160156 1.414062 10.207031 1.414062 10.253906 L 1.414062 26.328125 C 1.414062 27.058594 1.859375 27.761719 2.671875 28.304688 C 3.351562 28.761719 4.1875 29.03125 4.910156 29.03125 L 25.601562 29.03125 C 27.113281 29.03125 28.339844 27.820312 28.339844 26.328125 L 28.339844 23.03125 C 28.703125 22.832031 28.949219 22.453125 28.949219 22.015625 L 28.949219 18.339844 C 28.949219 17.902344 28.703125 17.519531 28.339844 17.320312 "/></g><path style=" stroke:none;fill-rule:nonzero;fill:#49494a;fill-opacity:1;" d="M 22.839844 19.660156 C 23.128906 19.660156 23.363281 19.890625 23.363281 20.175781 C 23.363281 20.460938 23.128906 20.695312 22.839844 20.695312 C 22.550781 20.695312 22.316406 20.460938 22.316406 20.175781 C 22.316406 19.890625 22.550781 19.660156 22.839844 19.660156 Z M 22.839844 21.742188 C 23.714844 21.742188 24.425781 21.039062 24.425781 20.175781 C 24.425781 19.3125 23.714844 18.609375 22.839844 18.609375 C 21.964844 18.609375 21.25 19.3125 21.25 20.175781 C 21.25 21.039062 21.964844 21.742188 22.839844 21.742188 "/><path style=" stroke:none;fill-rule:nonzero;fill:#49494a;fill-opacity:1;" d="M 11.957031 23.679688 L 11.957031 20.726562 C 13.121094 20.949219 13.515625 21.34375 13.515625 22.183594 C 13.515625 22.902344 12.851562 23.507812 11.957031 23.679688 Z M 9.335938 18.042969 C 9.335938 17.328125 9.996094 16.722656 10.894531 16.550781 L 10.894531 19.492188 C 9.527344 19.195312 9.335938 18.574219 9.335938 18.042969 Z M 11.957031 19.65625 L 11.957031 16.550781 C 12.585938 16.671875 13.109375 17.007812 13.363281 17.472656 C 13.503906 17.726562 13.828125 17.820312 14.085938 17.683594 C 14.34375 17.542969 14.441406 17.226562 14.300781 16.972656 C 13.867188 16.179688 12.976562 15.632812 11.957031 15.488281 L 11.957031 14.765625 C 11.957031 14.476562 11.71875 14.242188 11.425781 14.242188 C 11.132812 14.242188 10.894531 14.476562 10.894531 14.765625 L 10.894531 15.488281 C 9.40625 15.695312 8.269531 16.761719 8.269531 18.042969 C 8.269531 18.785156 8.550781 19.386719 9.097656 19.832031 C 9.53125 20.179688 10.121094 20.421875 10.894531 20.5625 L 10.894531 23.679688 C 10.246094 23.550781 9.703125 23.195312 9.460938 22.714844 C 9.332031 22.457031 9.011719 22.347656 8.75 22.476562 C 8.488281 22.605469 8.378906 22.921875 8.507812 23.179688 C 8.929688 24.015625 9.832031 24.59375 10.894531 24.742188 L 10.894531 25.464844 C 10.894531 25.753906 11.132812 25.988281 11.425781 25.988281 C 11.71875 25.988281 11.957031 25.753906 11.957031 25.464844 L 11.957031 24.742188 C 13.445312 24.535156 14.578125 23.46875 14.578125 22.183594 C 14.578125 20.277344 13.027344 19.824219 11.957031 19.65625 "/></g></svg>