<svg xmlns="http://www.w3.org/2000/svg" xmlns:xlink="http://www.w3.org/1999/xlink" width="80" zoomAndPan="magnify" viewBox="0 0 60 60" height="80" preserveAspectRatio="xMidYMid meet" version="1.2"><defs><clipPath id="7f5928526d"><path d="M 0.75 29 L 10 29 L 10 32 L 0.75 32 Z M 0.75 29 "/></clipPath><clipPath id="dcac58ff9c"><path d="M 50 27 L 59.25 27 L 59.25 30 L 50 30 Z M 50 27 "/></clipPath></defs><g id="76804e00ec"><rect x="0" width="60" y="0" height="60" style="fill:#ffffff;fill-opacity:1;stroke:none;"/><rect x="0" width="60" y="0" height="60" style="fill:#ffffff;fill-opacity:1;stroke:none;"/><path style=" stroke:none;fill-rule:nonzero;fill:#42444a;fill-opacity:1;" d="M 36.59375 53.53125 L 23.441406 53.53125 C 23.148438 53.53125 22.914062 53.296875 22.914062 53.003906 L 22.914062 52.488281 C 22.914062 52.195312 23.148438 51.960938 23.441406 51.960938 L 36.59375 51.960938 C 36.886719 51.960938 37.121094 52.195312 37.121094 52.488281 L 37.121094 53.003906 C 37.121094 53.296875 36.886719 53.53125 36.59375 53.53125 "/><path style=" stroke:none;fill-rule:nonzero;fill:#42444a;fill-opacity:1;" d="M 36.59375 50.257812 L 23.441406 50.257812 C 23.148438 50.257812 22.914062 50.019531 22.914062 49.730469 L 22.914062 49.210938 C 22.914062 48.917969 23.148438 48.683594 23.441406 48.683594 L 36.59375 48.683594 C 36.886719 48.683594 37.121094 48.917969 37.121094 49.210938 L 37.121094 49.730469 C 37.121094 50.019531 36.886719 50.257812 36.59375 50.257812 "/><path style=" stroke:none;fill-rule:nonzero;fill:#42444a;fill-opacity:1;" d="M 37.304688 55.273438 C 37.378906 55.273438 37.425781 55.351562 37.390625 55.414062 C 36.011719 58.078125 33.226562 59.902344 30.019531 59.902344 C 26.808594 59.902344 24.027344 58.078125 22.648438 55.414062 C 22.613281 55.351562 22.660156 55.273438 22.734375 55.273438 L 37.304688 55.273438 "/><path style=" stroke:none;fill-rule:nonzero;fill:#42444a;fill-opacity:1;" d="M 32.824219 44.320312 C 33.679688 44.320312 34.804688 44.320312 35.941406 44.328125 L 35.949219 44.328125 C 36.214844 44.328125 36.609375 44.277344 36.933594 43.867188 C 37.449219 43.210938 37.980469 42.550781 38.496094 41.914062 C 39.410156 40.78125 40.351562 39.605469 41.242188 38.417969 C 44.636719 33.871094 45.234375 28.988281 43.015625 23.910156 C 40.71875 18.652344 35.757812 15.390625 30.070312 15.390625 C 26.988281 15.390625 24.015625 16.375 21.472656 18.246094 C 15.417969 22.699219 13.960938 31.625 18.300781 37.738281 C 19.269531 39.105469 20.335938 40.421875 21.367188 41.695312 C 21.957031 42.421875 22.566406 43.175781 23.148438 43.925781 C 23.457031 44.324219 23.855469 44.324219 24.070312 44.324219 L 24.078125 44.324219 C 24.960938 44.320312 25.914062 44.320312 27.082031 44.320312 C 27.765625 44.320312 28.441406 44.320312 29.125 44.320312 L 30.011719 44.320312 C 30.480469 44.320312 30.949219 44.320312 31.417969 44.320312 C 31.886719 44.320312 32.359375 44.320312 32.824219 44.320312 Z M 37.390625 46.5 C 35.988281 46.492188 34.605469 46.488281 33.558594 46.488281 C 32.972656 46.488281 32.386719 46.488281 31.800781 46.492188 C 31.21875 46.492188 30.632812 46.492188 30.046875 46.492188 L 30.015625 46.492188 C 29.441406 46.492188 28.863281 46.492188 28.285156 46.492188 C 27.703125 46.492188 27.121094 46.488281 26.535156 46.488281 C 25.472656 46.488281 24.066406 46.492188 22.644531 46.496094 L 22.636719 46.496094 C 22.453125 46.496094 22.402344 46.464844 22.3125 46.351562 C 21.363281 45.144531 20.390625 43.925781 19.453125 42.746094 C 18.710938 41.816406 17.945312 40.851562 17.195312 39.902344 C 16.273438 38.734375 15.511719 37.46875 14.941406 36.136719 C 14.390625 34.859375 14.003906 33.511719 13.796875 32.136719 C 13.398438 29.484375 13.667969 26.730469 14.578125 24.171875 C 15.492188 21.609375 17.027344 19.296875 19.019531 17.484375 C 20.050781 16.550781 21.203125 15.746094 22.445312 15.101562 C 23.734375 14.429688 25.128906 13.925781 26.585938 13.601562 C 27.707031 13.355469 28.851562 13.230469 30 13.230469 C 33.640625 13.230469 37.253906 14.492188 40.171875 16.792969 C 41.628906 17.9375 42.863281 19.296875 43.847656 20.828125 C 44.867188 22.421875 45.585938 24.15625 45.988281 25.992188 C 46.550781 28.578125 46.5625 31.070312 46.019531 33.402344 C 45.476562 35.738281 44.367188 37.976562 42.71875 40.050781 C 42.175781 40.738281 41.628906 41.421875 41.085938 42.105469 C 39.992188 43.484375 38.859375 44.90625 37.753906 46.3125 C 37.625 46.476562 37.558594 46.5 37.394531 46.5 L 37.390625 46.5 "/><path style=" stroke:none;fill-rule:nonzero;fill:#42444a;fill-opacity:1;" d="M 39.175781 30.78125 C 39.175781 31.445312 38.636719 31.984375 37.972656 31.984375 L 37.800781 31.984375 C 37.546875 31.984375 37.34375 32.1875 37.34375 32.4375 L 37.34375 33.527344 C 37.34375 34.445312 36.597656 35.191406 35.683594 35.191406 L 35.683594 35.179688 L 34.019531 35.179688 C 33.671875 35.179688 33.390625 35.460938 33.390625 35.804688 C 33.390625 36.152344 33.671875 36.433594 34.019531 36.433594 L 34.671875 36.433594 C 34.832031 36.433594 34.941406 36.589844 34.882812 36.738281 C 34.511719 37.707031 33.574219 38.394531 32.476562 38.394531 C 32.0625 38.394531 31.730469 38.0625 31.730469 37.648438 L 31.730469 22.078125 C 31.730469 21.667969 32.0625 21.332031 32.476562 21.332031 C 33.496094 21.332031 34.375 21.925781 34.796875 22.785156 C 34.90625 23.015625 34.742188 23.285156 34.488281 23.285156 L 34.019531 23.285156 C 33.671875 23.285156 33.390625 23.566406 33.390625 23.910156 C 33.390625 24.257812 33.671875 24.539062 34.019531 24.539062 L 35.519531 24.539062 C 36.527344 24.539062 37.34375 25.355469 37.34375 26.363281 C 37.34375 26.449219 37.273438 26.523438 37.183594 26.523438 L 36.214844 26.523438 C 35.320312 26.523438 34.597656 27.246094 34.597656 28.140625 L 34.597656 29.269531 C 34.597656 29.617188 34.878906 29.898438 35.222656 29.898438 C 35.570312 29.898438 35.851562 29.617188 35.851562 29.269531 L 35.851562 28.625 C 35.851562 28.15625 36.230469 27.777344 36.695312 27.777344 L 38.199219 27.777344 L 38.199219 27.765625 C 38.757812 27.871094 39.175781 28.363281 39.175781 28.949219 Z M 38.597656 26.570312 L 38.597656 26.199219 C 38.597656 24.792969 37.59375 23.613281 36.265625 23.34375 C 35.992188 21.496094 34.398438 20.078125 32.476562 20.078125 C 31.371094 20.078125 30.476562 20.972656 30.476562 22.078125 L 30.476562 37.648438 C 30.476562 38.753906 31.371094 39.648438 32.476562 39.648438 C 34.398438 39.648438 35.992188 38.230469 36.265625 36.386719 C 37.59375 36.113281 38.597656 34.933594 38.597656 33.527344 L 38.597656 33.15625 C 39.652344 32.878906 40.429688 31.917969 40.429688 30.78125 L 40.429688 28.949219 C 40.429688 27.808594 39.652344 26.847656 38.597656 26.570312 "/><path style=" stroke:none;fill-rule:nonzero;fill:#42444a;fill-opacity:1;" d="M 20.859375 28.949219 C 20.859375 28.363281 21.28125 27.871094 21.835938 27.765625 L 21.835938 27.777344 L 23.339844 27.777344 C 23.808594 27.777344 24.1875 28.15625 24.1875 28.625 L 24.1875 29.269531 C 24.1875 29.617188 24.464844 29.898438 24.8125 29.898438 C 25.160156 29.898438 25.441406 29.617188 25.441406 29.269531 L 25.441406 28.140625 C 25.441406 27.246094 24.714844 26.523438 23.820312 26.523438 L 22.855469 26.523438 C 22.765625 26.523438 22.691406 26.449219 22.691406 26.363281 C 22.691406 25.355469 23.507812 24.539062 24.515625 24.539062 L 26.019531 24.539062 C 26.363281 24.539062 26.644531 24.257812 26.644531 23.910156 C 26.644531 23.566406 26.363281 23.285156 26.019531 23.285156 L 25.550781 23.285156 C 25.292969 23.285156 25.128906 23.015625 25.242188 22.785156 C 25.660156 21.925781 26.542969 21.332031 27.558594 21.332031 C 27.972656 21.332031 28.308594 21.667969 28.308594 22.078125 L 28.308594 37.648438 C 28.308594 38.0625 27.972656 38.394531 27.558594 38.394531 C 26.464844 38.394531 25.523438 37.707031 25.152344 36.738281 C 25.097656 36.589844 25.207031 36.433594 25.367188 36.433594 L 26.019531 36.433594 C 26.363281 36.433594 26.644531 36.152344 26.644531 35.804688 C 26.644531 35.460938 26.363281 35.179688 26.019531 35.179688 L 24.355469 35.179688 L 24.355469 35.191406 C 23.4375 35.191406 22.691406 34.445312 22.691406 33.527344 L 22.691406 32.4375 C 22.691406 32.1875 22.488281 31.984375 22.238281 31.984375 L 22.066406 31.984375 C 21.398438 31.984375 20.859375 31.445312 20.859375 30.78125 Z M 19.605469 28.949219 L 19.605469 30.78125 C 19.605469 31.917969 20.386719 32.878906 21.4375 33.15625 L 21.4375 33.527344 C 21.4375 34.933594 22.441406 36.113281 23.769531 36.386719 C 24.046875 38.230469 25.640625 39.648438 27.558594 39.648438 C 28.664062 39.648438 29.5625 38.753906 29.5625 37.648438 L 29.5625 22.078125 C 29.5625 20.972656 28.664062 20.078125 27.558594 20.078125 C 25.640625 20.078125 24.046875 21.496094 23.769531 23.34375 C 22.441406 23.613281 21.4375 24.792969 21.4375 26.199219 L 21.4375 26.570312 C 20.386719 26.847656 19.605469 27.808594 19.605469 28.949219 "/><path style=" stroke:none;fill-rule:nonzero;fill:#42444a;fill-opacity:1;" d="M 28.957031 9.171875 C 28.433594 9.171875 28.007812 8.746094 28.007812 8.222656 L 28.007812 1.046875 C 28.007812 0.523438 28.433594 0.0976562 28.957031 0.0976562 C 29.480469 0.0976562 29.90625 0.523438 29.90625 1.046875 L 29.90625 8.222656 C 29.90625 8.746094 29.480469 9.171875 28.957031 9.171875 "/><path style=" stroke:none;fill-rule:nonzero;fill:#42444a;fill-opacity:1;" d="M 18.535156 12.535156 C 18.195312 12.535156 17.882812 12.351562 17.710938 12.058594 L 14.125 5.84375 C 13.863281 5.390625 14.019531 4.808594 14.472656 4.546875 C 14.617188 4.464844 14.78125 4.421875 14.945312 4.421875 C 15.285156 4.421875 15.597656 4.601562 15.769531 4.894531 L 19.355469 11.109375 C 19.617188 11.5625 19.460938 12.144531 19.007812 12.40625 C 18.863281 12.488281 18.699219 12.535156 18.535156 12.535156 "/><path style=" stroke:none;fill-rule:nonzero;fill:#42444a;fill-opacity:1;" d="M 11.1875 20.65625 C 11.023438 20.65625 10.855469 20.613281 10.714844 20.527344 L 4.5 16.941406 C 4.046875 16.679688 3.890625 16.097656 4.152344 15.644531 C 4.320312 15.351562 4.636719 15.167969 4.976562 15.167969 C 5.140625 15.167969 5.304688 15.214844 5.449219 15.296875 L 11.664062 18.882812 C 11.882812 19.011719 12.039062 19.214844 12.105469 19.460938 C 12.171875 19.707031 12.136719 19.960938 12.011719 20.179688 C 11.839844 20.476562 11.523438 20.65625 11.1875 20.65625 "/><g clip-rule="nonzero" clip-path="url(#7f5928526d)"><path style=" stroke:none;fill-rule:nonzero;fill:#42444a;fill-opacity:1;" d="M 1.710938 31.363281 C 1.1875 31.363281 0.761719 30.9375 0.761719 30.414062 C 0.761719 29.890625 1.1875 29.464844 1.710938 29.464844 L 8.886719 29.464844 C 9.410156 29.464844 9.835938 29.890625 9.835938 30.414062 C 9.835938 30.9375 9.410156 31.363281 8.886719 31.363281 L 1.710938 31.363281 "/></g><g clip-rule="nonzero" clip-path="url(#dcac58ff9c)"><path style=" stroke:none;fill-rule:nonzero;fill:#42444a;fill-opacity:1;" d="M 51.148438 29.269531 C 50.628906 29.269531 50.199219 28.84375 50.199219 28.320312 C 50.199219 27.792969 50.628906 27.371094 51.148438 27.371094 L 58.328125 27.371094 C 58.847656 27.371094 59.273438 27.792969 59.273438 28.320312 C 59.273438 28.84375 58.847656 29.269531 58.328125 29.269531 L 51.148438 29.269531 "/></g><path style=" stroke:none;fill-rule:nonzero;fill:#42444a;fill-opacity:1;" d="M 47.789062 18.820312 C 47.453125 18.820312 47.136719 18.636719 46.96875 18.34375 C 46.707031 17.890625 46.859375 17.308594 47.3125 17.046875 L 53.527344 13.460938 C 53.671875 13.378906 53.835938 13.332031 54 13.332031 C 54.339844 13.332031 54.65625 13.515625 54.824219 13.808594 C 54.953125 14.027344 54.984375 14.28125 54.917969 14.527344 C 54.855469 14.773438 54.695312 14.976562 54.476562 15.105469 L 48.261719 18.691406 C 48.121094 18.777344 47.957031 18.820312 47.789062 18.820312 "/><path style=" stroke:none;fill-rule:nonzero;fill:#42444a;fill-opacity:1;" d="M 39.664062 11.472656 C 39.5 11.472656 39.335938 11.429688 39.191406 11.347656 C 38.738281 11.085938 38.582031 10.503906 38.84375 10.050781 L 42.433594 3.835938 C 42.601562 3.542969 42.917969 3.359375 43.253906 3.359375 C 43.417969 3.359375 43.585938 3.40625 43.726562 3.488281 C 44.183594 3.75 44.335938 4.332031 44.074219 4.785156 L 40.488281 11 C 40.320312 11.292969 40.003906 11.472656 39.664062 11.472656 "/></g></svg>