<svg xmlns="http://www.w3.org/2000/svg" xmlns:xlink="http://www.w3.org/1999/xlink" width="80" zoomAndPan="magnify" viewBox="0 0 60 60" height="80" preserveAspectRatio="xMidYMid meet" version="1.2"><g id="30cfd24518"><rect x="0" width="60" y="0" height="60" style="fill:#ffffff;fill-opacity:1;stroke:none;"/><rect x="0" width="60" y="0" height="60" style="fill:#ffffff;fill-opacity:1;stroke:none;"/><path style=" stroke:none;fill-rule:nonzero;fill:#42444a;fill-opacity:1;" d="M 43.816406 29.359375 C 43.308594 29.359375 42.953125 29.65625 42.953125 29.925781 C 42.953125 30.191406 43.230469 30.378906 43.910156 30.578125 L 44.019531 30.609375 C 45.285156 30.972656 45.929688 31.6875 45.929688 32.734375 C 45.929688 33.933594 44.78125 34.910156 43.371094 34.910156 C 42.765625 34.910156 42.273438 34.8125 41.96875 34.730469 C 41.542969 34.617188 41.285156 34.175781 41.402344 33.746094 C 41.515625 33.316406 41.953125 33.0625 42.386719 33.175781 C 42.558594 33.222656 42.917969 33.300781 43.371094 33.300781 C 43.914062 33.300781 44.320312 33.003906 44.320312 32.734375 C 44.320312 32.492188 44.203125 32.335938 43.574219 32.152344 C 43.574219 32.152344 43.464844 32.121094 43.464844 32.121094 C 42.941406 31.96875 41.34375 31.507812 41.34375 29.925781 C 41.34375 28.726562 42.453125 27.75 43.816406 27.75 C 44.53125 27.75 45.027344 27.957031 45.082031 27.980469 C 45.488281 28.15625 45.675781 28.628906 45.5 29.035156 C 45.324219 29.445312 44.851562 29.632812 44.441406 29.457031 C 44.445312 29.457031 44.445312 29.457031 44.445312 29.457031 C 44.441406 29.457031 44.1875 29.359375 43.816406 29.359375 Z M 48.15625 47.214844 L 40.117188 39.171875 L 46.34375 39.171875 C 48.601562 39.171875 50.4375 37.335938 50.4375 35.074219 L 50.4375 27.390625 C 50.4375 25.132812 48.601562 23.292969 46.34375 23.292969 L 24.078125 23.292969 C 24 23.117188 23.890625 22.945312 23.746094 22.800781 L 14.117188 13.171875 C 18.648438 9.203125 24.324219 7.210938 30 7.210938 C 36.179688 7.210938 42.359375 9.5625 47.0625 14.269531 C 56.089844 23.292969 56.449219 37.746094 48.15625 47.214844 Z M 38.71875 30.578125 L 38.824219 30.605469 C 40.09375 30.96875 40.734375 31.6875 40.734375 32.734375 C 40.734375 33.933594 39.589844 34.910156 38.179688 34.910156 C 37.574219 34.910156 37.082031 34.8125 36.777344 34.730469 C 36.347656 34.617188 36.09375 34.175781 36.207031 33.746094 C 36.324219 33.316406 36.761719 33.0625 37.191406 33.175781 C 37.367188 33.222656 37.726562 33.300781 38.179688 33.300781 C 38.722656 33.300781 39.125 33.003906 39.125 32.734375 C 39.125 32.492188 39.011719 32.335938 38.382812 32.152344 C 38.378906 32.152344 38.273438 32.121094 38.273438 32.121094 C 37.746094 31.96875 36.148438 31.507812 36.148438 29.925781 C 36.148438 28.726562 37.261719 27.75 38.625 27.75 C 39.339844 27.75 39.835938 27.957031 39.886719 27.980469 C 40.296875 28.15625 40.484375 28.628906 40.308594 29.039062 C 40.132812 29.445312 39.65625 29.632812 39.25 29.457031 C 39.25 29.457031 38.996094 29.359375 38.625 29.359375 C 38.113281 29.359375 37.757812 29.65625 37.757812 29.925781 C 37.757812 30.191406 38.039062 30.378906 38.71875 30.578125 Z M 33.804688 30.578125 C 34.25 30.578125 34.609375 30.9375 34.609375 31.382812 C 34.609375 31.828125 34.25 32.1875 33.804688 32.1875 L 32.347656 32.1875 L 32.347656 33.300781 L 34.527344 33.300781 C 34.972656 33.300781 35.332031 33.660156 35.332031 34.105469 C 35.332031 34.550781 34.972656 34.910156 34.527344 34.910156 L 31.542969 34.910156 C 31.101562 34.910156 30.738281 34.550781 30.738281 34.105469 L 30.738281 28.554688 C 30.738281 28.109375 31.101562 27.75 31.542969 27.75 L 34.527344 27.75 C 34.972656 27.75 35.332031 28.109375 35.332031 28.554688 C 35.332031 29 34.972656 29.359375 34.527344 29.359375 L 32.347656 29.359375 L 32.347656 30.578125 Z M 29.703125 33.648438 C 29.953125 34.015625 29.863281 34.515625 29.496094 34.769531 C 29.355469 34.863281 29.199219 34.910156 29.039062 34.910156 C 28.785156 34.910156 28.53125 34.789062 28.378906 34.5625 L 26.796875 32.265625 L 26.796875 34.105469 C 26.796875 34.550781 26.4375 34.910156 25.992188 34.910156 C 25.550781 34.910156 25.191406 34.550781 25.191406 34.105469 L 25.191406 28.554688 C 25.191406 28.109375 25.550781 27.75 25.992188 27.75 L 27.492188 27.75 C 28.714844 27.75 29.710938 28.746094 29.710938 29.96875 C 29.710938 30.820312 29.222656 31.554688 28.515625 31.925781 Z M 16.304688 32.152344 C 16.304688 32.152344 16.195312 32.121094 16.195312 32.121094 C 15.667969 31.96875 14.074219 31.507812 14.074219 29.925781 C 14.074219 28.726562 15.183594 27.75 16.546875 27.75 C 17.261719 27.75 17.757812 27.957031 17.8125 27.980469 C 18.21875 28.15625 18.40625 28.628906 18.230469 29.039062 C 18.054688 29.445312 17.582031 29.632812 17.171875 29.457031 C 17.171875 29.457031 16.917969 29.359375 16.546875 29.359375 C 16.035156 29.359375 15.683594 29.65625 15.683594 29.925781 C 15.683594 30.191406 15.960938 30.378906 16.640625 30.578125 L 16.746094 30.609375 C 18.015625 30.972656 18.65625 31.6875 18.65625 32.734375 C 18.65625 33.933594 17.511719 34.910156 16.101562 34.910156 C 15.496094 34.910156 15.003906 34.8125 14.699219 34.730469 C 14.273438 34.617188 14.015625 34.175781 14.132812 33.746094 C 14.246094 33.316406 14.683594 33.0625 15.117188 33.175781 C 15.289062 33.222656 15.648438 33.300781 16.101562 33.300781 C 16.644531 33.300781 17.046875 33.003906 17.046875 32.734375 C 17.046875 32.492188 16.933594 32.335938 16.304688 32.152344 Z M 19.945312 29.359375 C 19.5 29.359375 19.140625 29 19.140625 28.554688 C 19.140625 28.109375 19.5 27.75 19.945312 27.75 L 23.546875 27.75 C 23.992188 27.75 24.351562 28.109375 24.351562 28.554688 C 24.351562 29 23.992188 29.359375 23.546875 29.359375 L 22.550781 29.359375 L 22.550781 34.105469 C 22.550781 34.550781 22.191406 34.910156 21.746094 34.910156 C 21.300781 34.910156 20.941406 34.550781 20.941406 34.105469 L 20.941406 29.359375 Z M 12.9375 48.394531 C 3.910156 39.367188 3.550781 24.914062 11.84375 15.445312 L 19.6875 23.292969 L 13.65625 23.292969 C 11.398438 23.292969 9.5625 25.132812 9.5625 27.390625 L 9.5625 35.074219 C 9.5625 37.335938 11.398438 39.171875 13.65625 39.171875 L 23.097656 39.171875 L 23.097656 43.457031 C 23.097656 43.886719 23.355469 44.273438 23.753906 44.4375 C 23.886719 44.492188 24.027344 44.519531 24.164062 44.519531 C 24.441406 44.519531 24.710938 44.410156 24.914062 44.207031 L 29.949219 39.171875 L 35.726562 39.171875 C 35.804688 39.351562 35.914062 39.519531 36.0625 39.667969 L 45.882812 49.488281 C 36.414062 57.78125 21.964844 57.417969 12.9375 48.394531 Z M 49.339844 11.992188 C 38.675781 1.328125 21.324219 1.328125 10.664062 11.992188 C 0 22.65625 0 40.003906 10.664062 50.667969 C 15.996094 56 22.996094 58.664062 30 58.664062 C 37.003906 58.664062 44.007812 56 49.339844 50.667969 C 60 40.003906 60 22.65625 49.339844 11.992188 "/><path style=" stroke:none;fill-rule:nonzero;fill:#42444a;fill-opacity:1;" d="M 27.492188 29.359375 L 26.796875 29.359375 L 26.796875 30.582031 L 27.492188 30.582031 C 27.828125 30.582031 28.101562 30.304688 28.101562 29.96875 C 28.101562 29.632812 27.828125 29.359375 27.492188 29.359375 "/></g></svg>