<svg xmlns="http://www.w3.org/2000/svg" xmlns:xlink="http://www.w3.org/1999/xlink" width="80" zoomAndPan="magnify" viewBox="0 0 60 60" height="80" preserveAspectRatio="xMidYMid meet" version="1.2"><defs><clipPath id="fe0d322eda"><path d="M 1.835938 0 L 58.085938 0 L 58.085938 60 L 1.835938 60 Z M 1.835938 0 "/></clipPath></defs><g id="7468f4b1e3"><rect x="0" width="60" y="0" height="60" style="fill:#ffffff;fill-opacity:1;stroke:none;"/><rect x="0" width="60" y="0" height="60" style="fill:#ffffff;fill-opacity:1;stroke:none;"/><g clip-rule="nonzero" clip-path="url(#fe0d322eda)"><path style=" stroke:none;fill-rule:evenodd;fill:#42444a;fill-opacity:1;" d="M 44.71875 35.878906 L 46.972656 36.128906 C 47.707031 36.207031 48.375 35.675781 48.457031 34.933594 C 48.539062 34.195312 48 33.527344 47.265625 33.445312 L 45.011719 33.199219 C 44.671875 33.15625 44.304688 33.261719 44.023438 33.488281 C 43.078125 34.257812 43.550781 35.753906 44.71875 35.878906 Z M 43.085938 40.226562 C 43.078125 40.421875 42.882812 40.859375 42.816406 41.027344 C 42.097656 42.828125 42.179688 43.230469 42.800781 43.53125 C 43.265625 43.753906 43.820312 43.558594 44.042969 43.09375 L 44.867188 41.386719 C 45.199219 40.699219 45.363281 40.082031 45.429688 39.324219 L 45.558594 37.832031 C 44.808594 37.75 44.089844 37.734375 43.40625 37.382812 Z M 46.203125 22.320312 L 48.457031 22.570312 C 49.199219 22.652344 49.863281 22.117188 49.945312 21.375 C 50.027344 20.628906 49.488281 19.96875 48.75 19.886719 L 46.515625 19.636719 C 46.148438 19.601562 45.804688 19.699219 45.519531 19.929688 C 44.5625 20.699219 45.046875 22.195312 46.203125 22.320312 Z M 45.21875 31.359375 L 47.46875 31.609375 C 48.203125 31.691406 48.875 31.152344 48.957031 30.414062 C 49.039062 29.675781 48.5 29.007812 47.765625 28.925781 L 45.511719 28.675781 C 45.160156 28.636719 44.808594 28.742188 44.523438 28.96875 C 43.585938 29.714844 44.035156 31.230469 45.21875 31.359375 Z M 45.714844 26.84375 L 47.960938 27.089844 C 48.703125 27.167969 49.371094 26.636719 49.453125 25.894531 C 49.527344 25.144531 48.988281 24.484375 48.261719 24.40625 L 46.007812 24.160156 C 45.667969 24.117188 45.308594 24.226562 45.019531 24.449219 C 44.082031 25.195312 44.53125 26.710938 45.714844 26.84375 Z M 29.046875 22.589844 C 28.941406 22.027344 29.382812 21.496094 29.953125 21.496094 L 34.410156 21.496094 C 35.203125 21.496094 35.839844 20.855469 35.839844 20.070312 L 35.839844 19.820312 C 35.839844 19.035156 35.203125 18.390625 34.410156 18.390625 L 28.816406 18.390625 C 28.515625 18.390625 28.269531 18.464844 28.019531 18.632812 L 21.472656 23 C 20.230469 23.832031 19.429688 24.933594 19.046875 26.378906 L 17.644531 31.644531 C 17.324219 32.835938 16.800781 33.816406 15.996094 34.742188 L 7.953125 43.886719 L 7.921875 43.839844 C 5.242188 39.71875 3.683594 34.800781 3.683594 29.511719 C 3.683594 19.164062 9.679688 9.964844 18.835938 5.671875 C 19.488281 6.523438 20.507812 7.070312 21.660156 7.070312 C 23.609375 7.070312 25.195312 5.484375 25.195312 3.53125 C 25.195312 1.582031 23.609375 -0.00390625 21.660156 -0.00390625 C 19.546875 -0.00390625 17.894531 1.832031 18.140625 3.964844 C 8.292969 8.546875 1.839844 18.425781 1.839844 29.511719 C 1.839844 40.742188 8.484375 50.773438 18.589844 55.257812 L 19.332031 53.578125 L 22.925781 46.238281 C 23.496094 45.347656 24.335938 44.902344 25.078125 44.515625 C 25.683594 44.191406 26.214844 43.914062 26.515625 43.433594 C 27.414062 42.027344 27.824219 39.921875 28.359375 38.226562 C 28.949219 36.441406 29.453125 24.75 29.046875 22.589844 Z M 58.15625 29.511719 C 58.15625 42.535156 49.242188 53.738281 36.832031 56.832031 C 36.644531 58.605469 35.136719 59.992188 33.316406 59.992188 C 31.363281 59.992188 29.773438 58.40625 29.773438 56.453125 C 29.773438 54.503906 31.363281 52.917969 33.316406 52.917969 C 34.746094 52.917969 35.984375 53.773438 36.546875 55.007812 C 48.070312 52.054688 56.308594 41.636719 56.308594 29.511719 C 56.308594 22.675781 53.699219 16.363281 49.316406 11.644531 C 48.359375 12.96875 47.511719 14.734375 47.386719 16.160156 L 47.25 17.859375 L 46.710938 17.804688 C 44.957031 17.609375 43.371094 18.886719 43.183594 20.632812 C 43.09375 21.476562 43.332031 22.3125 43.871094 22.980469 C 43.871094 22.984375 43.878906 22.992188 43.886719 22.996094 C 43.878906 23 43.871094 23.003906 43.863281 23.007812 C 43.199219 23.542969 42.785156 24.304688 42.6875 25.152344 C 42.597656 25.996094 42.839844 26.832031 43.371094 27.5 C 43.378906 27.503906 43.378906 27.507812 43.386719 27.515625 C 43.378906 27.519531 43.371094 27.523438 43.371094 27.527344 C 41.96875 28.644531 41.765625 30.660156 42.890625 32.035156 C 42.882812 32.039062 42.875 32.042969 42.875 32.046875 C 42.203125 32.582031 41.789062 33.34375 41.699219 34.191406 C 41.648438 34.582031 41.675781 34.972656 41.78125 35.347656 L 41.265625 39.863281 L 39.714844 43.09375 C 39.496094 43.546875 38.933594 43.753906 38.464844 43.53125 C 38.132812 43.363281 38.042969 43.203125 38.007812 43.097656 C 37.894531 42.746094 38.066406 42.191406 38.3125 41.640625 L 39.167969 39.917969 L 39.21875 39.667969 L 39.632812 33.621094 C 39.667969 33.113281 39.28125 32.671875 38.777344 32.636719 C 38.261719 32.601562 37.828125 32.988281 37.789062 33.496094 L 37.390625 39.371094 L 37.167969 39.792969 C 36.980469 40.136719 36.785156 40.507812 36.613281 40.898438 L 35.09375 43.925781 C 34.554688 45.015625 33.078125 44.667969 32.84375 43.90625 C 32.726562 43.566406 32.800781 43.105469 32.957031 42.613281 L 34.523438 39.425781 L 34.597656 39.203125 L 34.792969 33.589844 C 34.808594 33.078125 34.410156 32.652344 33.902344 32.636719 C 33.398438 32.617188 32.957031 33.019531 32.949219 33.527344 L 32.777344 38.789062 C 32.664062 38.996094 32.539062 39.230469 32.402344 39.472656 C 31.992188 40.226562 31.535156 41.070312 31.242188 41.929688 L 30.1875 44.09375 C 29.804688 44.875 28.734375 45.054688 28.117188 44.351562 C 29.128906 42.738281 29.550781 40.597656 30.132812 38.789062 C 30.710938 36.972656 31.203125 27.164062 30.972656 23.34375 L 34.410156 23.34375 C 36.214844 23.34375 37.691406 21.875 37.691406 20.070312 L 37.691406 19.820312 C 37.691406 18.015625 36.214844 16.546875 34.410156 16.546875 L 28.816406 16.546875 C 27.652344 16.546875 27.085938 17.03125 26.191406 17.632812 L 27.554688 14.210938 C 28.011719 13.050781 28.71875 12.1875 29.757812 11.492188 L 32.1875 9.871094 C 33.257812 9.160156 34.042969 8.3125 34.664062 7.195312 L 36.515625 3.855469 L 37.183594 2.277344 L 37.332031 2.316406 C 43.242188 3.890625 48.375 7.367188 52.074219 12.027344 C 55.886719 16.832031 58.15625 22.90625 58.15625 29.511719 Z M 58.15625 29.511719 "/></g></g></svg>