<svg xmlns="http://www.w3.org/2000/svg" xmlns:xlink="http://www.w3.org/1999/xlink" width="40" zoomAndPan="magnify" viewBox="0 0 30 30.000001" height="40" preserveAspectRatio="xMidYMid meet" version="1.2"><defs><clipPath id="b60feb2795"><path d="M 0.484375 0 L 29.515625 0 L 29.515625 29.03125 L 0.484375 29.03125 Z M 0.484375 0 "/></clipPath><clipPath id="a28faf5699"><path d="M 15 0 C 6.984375 0 0.484375 6.5 0.484375 14.515625 C 0.484375 22.53125 6.984375 29.03125 15 29.03125 C 23.015625 29.03125 29.515625 22.53125 29.515625 14.515625 C 29.515625 6.5 23.015625 0 15 0 Z M 15 0 "/></clipPath><clipPath id="24e7b1c7b6"><path d="M 0.484375 0 L 29.515625 0 L 29.515625 29.03125 L 0.484375 29.03125 Z M 0.484375 0 "/></clipPath><clipPath id="33b3b98710"><path d="M 15 0 C 6.984375 0 0.484375 6.5 0.484375 14.515625 C 0.484375 22.53125 6.984375 29.03125 15 29.03125 C 23.015625 29.03125 29.515625 22.53125 29.515625 14.515625 C 29.515625 6.5 23.015625 0 15 0 Z M 15 0 "/></clipPath><linearGradient x1="128" gradientTransform="matrix(0.113407,0,0,0.113407,0.48387,0.00000193548)" y1="256" x2="128" gradientUnits="userSpaceOnUse" y2="0" id="fef718e9ce"><stop style="stop-color:#e35df7;stop-opacity:1;" offset="0"/><stop style="stop-color:#e35df7;stop-opacity:1;" offset="0.0078125"/><stop style="stop-color:#e25df7;stop-opacity:1;" offset="0.015625"/><stop style="stop-color:#e25df7;stop-opacity:1;" offset="0.0234375"/><stop style="stop-color:#e15cf7;stop-opacity:1;" offset="0.03125"/><stop style="stop-color:#e05cf7;stop-opacity:1;" offset="0.0390625"/><stop style="stop-color:#e05cf7;stop-opacity:1;" offset="0.046875"/><stop style="stop-color:#df5cf7;stop-opacity:1;" offset="0.0546875"/><stop style="stop-color:#df5cf7;stop-opacity:1;" offset="0.0625"/><stop style="stop-color:#de5cf8;stop-opacity:1;" offset="0.0703125"/><stop style="stop-color:#dd5bf8;stop-opacity:1;" offset="0.078125"/><stop style="stop-color:#dd5bf8;stop-opacity:1;" offset="0.0859375"/><stop style="stop-color:#dc5bf8;stop-opacity:1;" offset="0.09375"/><stop style="stop-color:#dc5bf8;stop-opacity:1;" offset="0.101562"/><stop style="stop-color:#db5bf8;stop-opacity:1;" offset="0.109375"/><stop style="stop-color:#da5bf8;stop-opacity:1;" offset="0.117188"/><stop style="stop-color:#da5af8;stop-opacity:1;" offset="0.125"/><stop style="stop-color:#d95af8;stop-opacity:1;" offset="0.132812"/><stop style="stop-color:#d95af8;stop-opacity:1;" offset="0.140625"/><stop style="stop-color:#d85af8;stop-opacity:1;" offset="0.148438"/><stop style="stop-color:#d75af8;stop-opacity:1;" offset="0.15625"/><stop style="stop-color:#d759f8;stop-opacity:1;" offset="0.164062"/><stop style="stop-color:#d659f8;stop-opacity:1;" offset="0.171875"/><stop style="stop-color:#d659f8;stop-opacity:1;" offset="0.179688"/><stop style="stop-color:#d559f8;stop-opacity:1;" offset="0.1875"/><stop style="stop-color:#d459f9;stop-opacity:1;" offset="0.195312"/><stop style="stop-color:#d459f9;stop-opacity:1;" offset="0.203125"/><stop style="stop-color:#d358f9;stop-opacity:1;" offset="0.210938"/><stop style="stop-color:#d358f9;stop-opacity:1;" offset="0.21875"/><stop style="stop-color:#d258f9;stop-opacity:1;" offset="0.226562"/><stop style="stop-color:#d158f9;stop-opacity:1;" offset="0.234375"/><stop style="stop-color:#d158f9;stop-opacity:1;" offset="0.242188"/><stop style="stop-color:#d058f9;stop-opacity:1;" offset="0.25"/><stop style="stop-color:#d057f9;stop-opacity:1;" offset="0.257812"/><stop style="stop-color:#cf57f9;stop-opacity:1;" offset="0.265625"/><stop style="stop-color:#cf57f9;stop-opacity:1;" offset="0.273438"/><stop style="stop-color:#ce57f9;stop-opacity:1;" offset="0.28125"/><stop style="stop-color:#cd57f9;stop-opacity:1;" offset="0.289062"/><stop style="stop-color:#cd57f9;stop-opacity:1;" offset="0.296875"/><stop style="stop-color:#cc56f9;stop-opacity:1;" offset="0.304688"/><stop style="stop-color:#cc56f9;stop-opacity:1;" offset="0.3125"/><stop style="stop-color:#cb56fa;stop-opacity:1;" offset="0.320312"/><stop style="stop-color:#ca56fa;stop-opacity:1;" offset="0.328125"/><stop style="stop-color:#ca56fa;stop-opacity:1;" offset="0.335938"/><stop style="stop-color:#c956fa;stop-opacity:1;" offset="0.34375"/><stop style="stop-color:#c955fa;stop-opacity:1;" offset="0.351562"/><stop style="stop-color:#c855fa;stop-opacity:1;" offset="0.359375"/><stop style="stop-color:#c755fa;stop-opacity:1;" offset="0.367188"/><stop style="stop-color:#c755fa;stop-opacity:1;" offset="0.375"/><stop style="stop-color:#c655fa;stop-opacity:1;" offset="0.382812"/><stop style="stop-color:#c654fa;stop-opacity:1;" offset="0.390625"/><stop style="stop-color:#c554fa;stop-opacity:1;" offset="0.398438"/><stop style="stop-color:#c454fa;stop-opacity:1;" offset="0.40625"/><stop style="stop-color:#c454fa;stop-opacity:1;" offset="0.414062"/><stop style="stop-color:#c354fa;stop-opacity:1;" offset="0.421875"/><stop style="stop-color:#c354fa;stop-opacity:1;" offset="0.429688"/><stop style="stop-color:#c253fa;stop-opacity:1;" offset="0.4375"/><stop style="stop-color:#c153fb;stop-opacity:1;" offset="0.445312"/><stop style="stop-color:#c153fb;stop-opacity:1;" offset="0.453125"/><stop style="stop-color:#c053fb;stop-opacity:1;" offset="0.460938"/><stop style="stop-color:#c053fb;stop-opacity:1;" offset="0.46875"/><stop style="stop-color:#bf53fb;stop-opacity:1;" offset="0.476562"/><stop style="stop-color:#be52fb;stop-opacity:1;" offset="0.484375"/><stop style="stop-color:#be52fb;stop-opacity:1;" offset="0.492188"/><stop style="stop-color:#bd52fb;stop-opacity:1;" offset="0.5"/><stop style="stop-color:#bd52fb;stop-opacity:1;" offset="0.507812"/><stop style="stop-color:#bc52fb;stop-opacity:1;" offset="0.515625"/><stop style="stop-color:#bc52fb;stop-opacity:1;" offset="0.523438"/><stop style="stop-color:#bb51fb;stop-opacity:1;" offset="0.53125"/><stop style="stop-color:#ba51fb;stop-opacity:1;" offset="0.539062"/><stop style="stop-color:#ba51fb;stop-opacity:1;" offset="0.546875"/><stop style="stop-color:#b951fb;stop-opacity:1;" offset="0.554688"/><stop style="stop-color:#b951fb;stop-opacity:1;" offset="0.5625"/><stop style="stop-color:#b851fc;stop-opacity:1;" offset="0.570312"/><stop style="stop-color:#b750fc;stop-opacity:1;" offset="0.578125"/><stop style="stop-color:#b750fc;stop-opacity:1;" offset="0.585938"/><stop style="stop-color:#b650fc;stop-opacity:1;" offset="0.59375"/><stop style="stop-color:#b650fc;stop-opacity:1;" offset="0.601562"/><stop style="stop-color:#b550fc;stop-opacity:1;" offset="0.609375"/><stop style="stop-color:#b450fc;stop-opacity:1;" offset="0.617188"/><stop style="stop-color:#b44ffc;stop-opacity:1;" offset="0.625"/><stop style="stop-color:#b34ffc;stop-opacity:1;" offset="0.632812"/><stop style="stop-color:#b34ffc;stop-opacity:1;" offset="0.640625"/><stop style="stop-color:#b24ffc;stop-opacity:1;" offset="0.648438"/><stop style="stop-color:#b14ffc;stop-opacity:1;" offset="0.65625"/><stop style="stop-color:#b14efc;stop-opacity:1;" offset="0.664062"/><stop style="stop-color:#b04efc;stop-opacity:1;" offset="0.671875"/><stop style="stop-color:#b04efc;stop-opacity:1;" offset="0.679688"/><stop style="stop-color:#af4efc;stop-opacity:1;" offset="0.6875"/><stop style="stop-color:#ae4efd;stop-opacity:1;" offset="0.695312"/><stop style="stop-color:#ae4efd;stop-opacity:1;" offset="0.703125"/><stop style="stop-color:#ad4dfd;stop-opacity:1;" offset="0.710938"/><stop style="stop-color:#ad4dfd;stop-opacity:1;" offset="0.71875"/><stop style="stop-color:#ac4dfd;stop-opacity:1;" offset="0.726562"/><stop style="stop-color:#ab4dfd;stop-opacity:1;" offset="0.734375"/><stop style="stop-color:#ab4dfd;stop-opacity:1;" offset="0.742188"/><stop style="stop-color:#aa4dfd;stop-opacity:1;" offset="0.75"/><stop style="stop-color:#aa4cfd;stop-opacity:1;" offset="0.757812"/><stop style="stop-color:#a94cfd;stop-opacity:1;" offset="0.765625"/><stop style="stop-color:#a94cfd;stop-opacity:1;" offset="0.773438"/><stop style="stop-color:#a84cfd;stop-opacity:1;" offset="0.78125"/><stop style="stop-color:#a74cfd;stop-opacity:1;" offset="0.789062"/><stop style="stop-color:#a74cfd;stop-opacity:1;" offset="0.796875"/><stop style="stop-color:#a64bfd;stop-opacity:1;" offset="0.804688"/><stop style="stop-color:#a64bfd;stop-opacity:1;" offset="0.8125"/><stop style="stop-color:#a54bfe;stop-opacity:1;" offset="0.820312"/><stop style="stop-color:#a44bfe;stop-opacity:1;" offset="0.828125"/><stop style="stop-color:#a44bfe;stop-opacity:1;" offset="0.835938"/><stop style="stop-color:#a34bfe;stop-opacity:1;" offset="0.84375"/><stop style="stop-color:#a34afe;stop-opacity:1;" offset="0.851562"/><stop style="stop-color:#a24afe;stop-opacity:1;" offset="0.859375"/><stop style="stop-color:#a14afe;stop-opacity:1;" offset="0.867188"/><stop style="stop-color:#a14afe;stop-opacity:1;" offset="0.875"/><stop style="stop-color:#a04afe;stop-opacity:1;" offset="0.882812"/><stop style="stop-color:#a049fe;stop-opacity:1;" offset="0.890625"/><stop style="stop-color:#9f49fe;stop-opacity:1;" offset="0.898438"/><stop style="stop-color:#9e49fe;stop-opacity:1;" offset="0.90625"/><stop style="stop-color:#9e49fe;stop-opacity:1;" offset="0.914062"/><stop style="stop-color:#9d49fe;stop-opacity:1;" offset="0.921875"/><stop style="stop-color:#9d49fe;stop-opacity:1;" offset="0.929688"/><stop style="stop-color:#9c48fe;stop-opacity:1;" offset="0.9375"/><stop style="stop-color:#9b48ff;stop-opacity:1;" offset="0.945312"/><stop style="stop-color:#9b48ff;stop-opacity:1;" offset="0.953125"/><stop style="stop-color:#9a48ff;stop-opacity:1;" offset="0.960938"/><stop style="stop-color:#9a48ff;stop-opacity:1;" offset="0.96875"/><stop style="stop-color:#9948ff;stop-opacity:1;" offset="0.976562"/><stop style="stop-color:#9847ff;stop-opacity:1;" offset="0.984375"/><stop style="stop-color:#9847ff;stop-opacity:1;" offset="0.992188"/><stop style="stop-color:#9747ff;stop-opacity:1;" offset="1"/></linearGradient><clipPath id="212e030e75"><rect x="0" width="30" y="0" height="30"/></clipPath><clipPath id="c66898cc65"><path d="M 5.609375 5.074219 L 24.480469 5.074219 L 24.480469 23.945312 L 5.609375 23.945312 Z M 5.609375 5.074219 "/></clipPath></defs><g id="c7fe9394da"><g clip-rule="nonzero" clip-path="url(#b60feb2795)"><g clip-rule="nonzero" clip-path="url(#a28faf5699)"><g transform="matrix(1,0,0,1,0,0.000000000000005692)"><g clip-path="url(#212e030e75)"><g clip-rule="nonzero" clip-path="url(#24e7b1c7b6)"><g clip-rule="nonzero" clip-path="url(#33b3b98710)"><path style=" stroke:none;fill-rule:nonzero;fill:url(#fef718e9ce);" d="M 0.484375 0 L 0.484375 29.03125 L 29.515625 29.03125 L 29.515625 0 Z M 0.484375 0 "/></g></g></g></g></g></g><g clip-rule="nonzero" clip-path="url(#c66898cc65)"><path style=" stroke:none;fill-rule:evenodd;fill:#ffffff;fill-opacity:1;" d="M 21.730469 7.816406 C 19.957031 6.050781 17.597656 5.078125 15.085938 5.078125 C 9.90625 5.078125 5.691406 9.269531 5.6875 14.417969 C 5.6875 16.0625 6.121094 17.671875 6.945312 19.085938 L 5.609375 23.925781 L 10.589844 22.628906 C 11.964844 23.371094 13.507812 23.765625 15.082031 23.765625 L 15.085938 23.765625 C 20.265625 23.765625 24.480469 19.574219 24.480469 14.425781 C 24.480469 11.929688 23.507812 9.582031 21.730469 7.820312 Z M 15.085938 22.1875 L 15.082031 22.1875 C 13.679688 22.1875 12.308594 21.8125 11.109375 21.105469 L 10.824219 20.9375 L 7.867188 21.707031 L 8.65625 18.84375 L 8.46875 18.550781 C 7.6875 17.3125 7.273438 15.886719 7.277344 14.417969 C 7.277344 10.136719 10.78125 6.65625 15.089844 6.65625 C 17.175781 6.65625 19.136719 7.464844 20.609375 8.933594 C 22.085938 10.398438 22.894531 12.351562 22.894531 14.425781 C 22.894531 18.707031 19.390625 22.1875 15.085938 22.1875 Z M 19.371094 16.375 C 19.132812 16.257812 17.980469 15.691406 17.765625 15.613281 C 17.550781 15.539062 17.394531 15.5 17.238281 15.730469 C 17.082031 15.964844 16.628906 16.492188 16.492188 16.648438 C 16.355469 16.800781 16.21875 16.820312 15.984375 16.703125 C 15.75 16.589844 14.992188 16.34375 14.097656 15.546875 C 13.398438 14.929688 12.925781 14.164062 12.789062 13.929688 C 12.652344 13.695312 12.777344 13.570312 12.894531 13.453125 C 13 13.347656 13.128906 13.179688 13.246094 13.046875 C 13.363281 12.910156 13.402344 12.8125 13.480469 12.65625 C 13.558594 12.5 13.519531 12.363281 13.460938 12.246094 C 13.402344 12.128906 12.933594 10.980469 12.738281 10.515625 C 12.546875 10.058594 12.351562 10.121094 12.210938 10.113281 C 12.070312 10.105469 11.914062 10.105469 11.757812 10.105469 C 11.601562 10.105469 11.347656 10.164062 11.132812 10.398438 C 10.917969 10.632812 10.3125 11.195312 10.3125 12.34375 C 10.3125 13.492188 11.152344 14.601562 11.269531 14.757812 C 11.386719 14.914062 12.925781 17.273438 15.28125 18.28125 C 15.839844 18.523438 16.277344 18.667969 16.617188 18.773438 C 17.179688 18.953125 17.691406 18.925781 18.097656 18.867188 C 18.546875 18.800781 19.488281 18.300781 19.683594 17.757812 C 19.878906 17.210938 19.878906 16.746094 19.820312 16.648438 C 19.761719 16.550781 19.605469 16.492188 19.367188 16.375 Z M 19.371094 16.375 "/></g></g></svg>